STARTFONT 2.1
FONT -memleek-leggie-bold-i-normal--12----c-60-iso10646-1
SIZE 12 75 75
FONTBOUNDINGBOX 6 12 0 -2
STARTPROPERTIES 17
AVERAGE_WIDTH 60
CAP_HEIGHT 7
CHARSET_ENCODING "1"
CHARSET_REGISTRY "ISO10646"
COMMENT "Please visit https://memleek.org/leggie"
COPYRIGHT "2012-2018 W. Kerr. Licensed under CC BY 4.0"
DEFAULT_CHAR 65535
FAMILY_NAME "leggie"
FONT "leggie"
FONT_ASCENT 10
FONT_DESCENT 2
FOUNDRY "memleek"
PIXEL_SIZE 12
SETWIDTH_NAME "Normal"
SLANT "I"
SPACING "C"
WEIGHT_NAME "Bold"
X_HEIGHT 5
ENDPROPERTIES
CHARS 554
STARTCHAR SPACE
ENCODING 32
SWIDTH 480 0
DWIDTH 6 0
BBX 6 12 0 -2
BITMAP
00
00
00
00
00
00
00
00
00
00
00
00
ENDCHAR
STARTCHAR EXCLAMATION MARK
ENCODING 33
SWIDTH 480 0
DWIDTH 6 0
BBX 6 12 0 -2
BITMAP
00
00
00
18
18
30
20
00
60
60
00
00
ENDCHAR
STARTCHAR QUOTATION MARK
ENCODING 34
SWIDTH 480 0
DWIDTH 6 0
BBX 6 12 0 -2
BITMAP
00
00
6C
CC
D8
00
00
00
00
00
00
00
ENDCHAR
STARTCHAR NUMBER SIGN
ENCODING 35
SWIDTH 480 0
DWIDTH 6 0
BBX 6 12 0 -2
BITMAP
00
00
00
6C
6C
7C
48
F8
D8
D8
00
00
ENDCHAR
STARTCHAR DOLLAR SIGN
ENCODING 36
SWIDTH 480 0
DWIDTH 6 0
BBX 6 12 0 -2
BITMAP
00
00
18
3C
60
60
30
18
18
F0
60
00
ENDCHAR
STARTCHAR PERCENT SIGN
ENCODING 37
SWIDTH 480 0
DWIDTH 6 0
BBX 6 12 0 -2
BITMAP
00
00
00
60
DC
78
30
78
EC
18
00
00
ENDCHAR
STARTCHAR AMPERSAND
ENCODING 38
SWIDTH 480 0
DWIDTH 6 0
BBX 6 12 0 -2
BITMAP
00
00
00
38
6C
68
70
CC
F8
6C
00
00
ENDCHAR
STARTCHAR APOSTROPHE
ENCODING 39
SWIDTH 480 0
DWIDTH 6 0
BBX 6 12 0 -2
BITMAP
00
00
30
30
60
00
00
00
00
00
00
00
ENDCHAR
STARTCHAR LEFT PARENTHESIS
ENCODING 40
SWIDTH 480 0
DWIDTH 6 0
BBX 6 12 0 -2
BITMAP
00
18
30
30
30
30
60
60
60
60
60
30
ENDCHAR
STARTCHAR RIGHT PARENTHESIS
ENCODING 41
SWIDTH 480 0
DWIDTH 6 0
BBX 6 12 0 -2
BITMAP
00
30
18
18
18
18
30
30
30
30
30
60
ENDCHAR
STARTCHAR ASTERISK
ENCODING 42
SWIDTH 480 0
DWIDTH 6 0
BBX 6 12 0 -2
BITMAP
00
00
00
00
6C
30
FC
30
D8
00
00
00
ENDCHAR
STARTCHAR PLUS SIGN
ENCODING 43
SWIDTH 480 0
DWIDTH 6 0
BBX 6 12 0 -2
BITMAP
00
00
00
00
18
18
FC
60
60
00
00
00
ENDCHAR
STARTCHAR COMMA
ENCODING 44
SWIDTH 480 0
DWIDTH 6 0
BBX 6 12 0 -2
BITMAP
00
00
00
00
00
00
00
00
60
60
C0
00
ENDCHAR
STARTCHAR HYPHEN-MINUS
ENCODING 45
SWIDTH 480 0
DWIDTH 6 0
BBX 6 12 0 -2
BITMAP
00
00
00
00
00
7C
F8
00
00
00
00
00
ENDCHAR
STARTCHAR FULL STOP
ENCODING 46
SWIDTH 480 0
DWIDTH 6 0
BBX 6 12 0 -2
BITMAP
00
00
00
00
00
00
00
00
60
60
00
00
ENDCHAR
STARTCHAR SOLIDUS
ENCODING 47
SWIDTH 480 0
DWIDTH 6 0
BBX 6 12 0 -2
BITMAP
00
00
0C
0C
0C
18
30
30
60
C0
C0
C0
ENDCHAR
STARTCHAR DIGIT ZERO
ENCODING 48
SWIDTH 480 0
DWIDTH 6 0
BBX 6 12 0 -2
BITMAP
00
00
00
38
6C
6C
FC
D8
D8
70
00
00
ENDCHAR
STARTCHAR DIGIT ONE
ENCODING 49
SWIDTH 480 0
DWIDTH 6 0
BBX 6 12 0 -2
BITMAP
00
00
00
18
38
78
18
30
30
30
00
00
ENDCHAR
STARTCHAR DIGIT TWO
ENCODING 50
SWIDTH 480 0
DWIDTH 6 0
BBX 6 12 0 -2
BITMAP
00
00
00
78
0C
0C
18
30
60
F8
00
00
ENDCHAR
STARTCHAR DIGIT THREE
ENCODING 51
SWIDTH 480 0
DWIDTH 6 0
BBX 6 12 0 -2
BITMAP
00
00
00
78
0C
0C
38
18
18
F0
00
00
ENDCHAR
STARTCHAR DIGIT FOUR
ENCODING 52
SWIDTH 480 0
DWIDTH 6 0
BBX 6 12 0 -2
BITMAP
00
00
00
0C
1C
3C
6C
F8
18
18
00
00
ENDCHAR
STARTCHAR DIGIT FIVE
ENCODING 53
SWIDTH 480 0
DWIDTH 6 0
BBX 6 12 0 -2
BITMAP
00
00
00
7C
60
78
0C
0C
18
F0
00
00
ENDCHAR
STARTCHAR DIGIT SIX
ENCODING 54
SWIDTH 480 0
DWIDTH 6 0
BBX 6 12 0 -2
BITMAP
00
00
00
1C
30
78
6C
CC
D8
70
00
00
ENDCHAR
STARTCHAR DIGIT SEVEN
ENCODING 55
SWIDTH 480 0
DWIDTH 6 0
BBX 6 12 0 -2
BITMAP
00
00
00
7C
0C
78
3C
60
60
60
00
00
ENDCHAR
STARTCHAR DIGIT EIGHT
ENCODING 56
SWIDTH 480 0
DWIDTH 6 0
BBX 6 12 0 -2
BITMAP
00
00
00
38
6C
6C
78
D8
D8
70
00
00
ENDCHAR
STARTCHAR DIGIT NINE
ENCODING 57
SWIDTH 480 0
DWIDTH 6 0
BBX 6 12 0 -2
BITMAP
00
00
00
38
6C
CC
D8
78
30
E0
00
00
ENDCHAR
STARTCHAR COLON
ENCODING 58
SWIDTH 480 0
DWIDTH 6 0
BBX 6 12 0 -2
BITMAP
00
00
00
00
30
30
00
00
60
60
00
00
ENDCHAR
STARTCHAR SEMICOLON
ENCODING 59
SWIDTH 480 0
DWIDTH 6 0
BBX 6 12 0 -2
BITMAP
00
00
00
00
30
30
00
00
60
60
C0
00
ENDCHAR
STARTCHAR LESS-THAN SIGN
ENCODING 60
SWIDTH 480 0
DWIDTH 6 0
BBX 6 12 0 -2
BITMAP
00
00
0C
18
30
60
C0
C0
60
30
18
00
ENDCHAR
STARTCHAR EQUALS SIGN
ENCODING 61
SWIDTH 480 0
DWIDTH 6 0
BBX 6 12 0 -2
BITMAP
00
00
00
00
7C
7C
00
F8
F8
00
00
00
ENDCHAR
STARTCHAR GREATER-THAN SIGN
ENCODING 62
SWIDTH 480 0
DWIDTH 6 0
BBX 6 12 0 -2
BITMAP
00
00
60
30
18
0C
0C
18
30
60
C0
00
ENDCHAR
STARTCHAR QUESTION MARK
ENCODING 63
SWIDTH 480 0
DWIDTH 6 0
BBX 6 12 0 -2
BITMAP
00
00
00
F8
0C
0C
38
00
60
60
00
00
ENDCHAR
STARTCHAR COMMERCIAL AT
ENCODING 64
SWIDTH 480 0
DWIDTH 6 0
BBX 6 12 0 -2
BITMAP
00
00
00
38
6C
7C
6C
F8
F0
C0
70
00
ENDCHAR
STARTCHAR LATIN CAPITAL LETTER A
ENCODING 65
SWIDTH 480 0
DWIDTH 6 0
BBX 6 12 0 -2
BITMAP
00
00
00
38
6C
6C
6C
F8
D8
D8
00
00
ENDCHAR
STARTCHAR LATIN CAPITAL LETTER B
ENCODING 66
SWIDTH 480 0
DWIDTH 6 0
BBX 6 12 0 -2
BITMAP
00
00
00
78
6C
6C
F8
D8
D8
F0
00
00
ENDCHAR
STARTCHAR LATIN CAPITAL LETTER C
ENCODING 67
SWIDTH 480 0
DWIDTH 6 0
BBX 6 12 0 -2
BITMAP
00
00
00
3C
60
60
C0
C0
C0
78
00
00
ENDCHAR
STARTCHAR LATIN CAPITAL LETTER D
ENCODING 68
SWIDTH 480 0
DWIDTH 6 0
BBX 6 12 0 -2
BITMAP
00
00
00
78
6C
6C
CC
D8
D8
F0
00
00
ENDCHAR
STARTCHAR LATIN CAPITAL LETTER E
ENCODING 69
SWIDTH 480 0
DWIDTH 6 0
BBX 6 12 0 -2
BITMAP
00
00
00
7C
60
60
F0
C0
C0
F8
00
00
ENDCHAR
STARTCHAR LATIN CAPITAL LETTER F
ENCODING 70
SWIDTH 480 0
DWIDTH 6 0
BBX 6 12 0 -2
BITMAP
00
00
00
7C
60
60
F0
C0
C0
C0
00
00
ENDCHAR
STARTCHAR LATIN CAPITAL LETTER G
ENCODING 71
SWIDTH 480 0
DWIDTH 6 0
BBX 6 12 0 -2
BITMAP
00
00
00
3C
60
60
CC
CC
D8
78
00
00
ENDCHAR
STARTCHAR LATIN CAPITAL LETTER H
ENCODING 72
SWIDTH 480 0
DWIDTH 6 0
BBX 6 12 0 -2
BITMAP
00
00
00
6C
6C
6C
FC
D8
D8
D8
00
00
ENDCHAR
STARTCHAR LATIN CAPITAL LETTER I
ENCODING 73
SWIDTH 480 0
DWIDTH 6 0
BBX 6 12 0 -2
BITMAP
00
00
00
78
30
30
60
60
60
F0
00
00
ENDCHAR
STARTCHAR LATIN CAPITAL LETTER J
ENCODING 74
SWIDTH 480 0
DWIDTH 6 0
BBX 6 12 0 -2
BITMAP
00
00
00
0C
0C
0C
18
18
D8
70
00
00
ENDCHAR
STARTCHAR LATIN CAPITAL LETTER K
ENCODING 75
SWIDTH 480 0
DWIDTH 6 0
BBX 6 12 0 -2
BITMAP
00
00
00
6C
78
70
E0
F0
D8
CC
00
00
ENDCHAR
STARTCHAR LATIN CAPITAL LETTER L
ENCODING 76
SWIDTH 480 0
DWIDTH 6 0
BBX 6 12 0 -2
BITMAP
00
00
00
60
60
60
C0
C0
C0
FC
00
00
ENDCHAR
STARTCHAR LATIN CAPITAL LETTER M
ENCODING 77
SWIDTH 480 0
DWIDTH 6 0
BBX 6 12 0 -2
BITMAP
00
00
00
6C
6C
7C
CC
D8
D8
D8
00
00
ENDCHAR
STARTCHAR LATIN CAPITAL LETTER N
ENCODING 78
SWIDTH 480 0
DWIDTH 6 0
BBX 6 12 0 -2
BITMAP
00
00
00
6C
6C
6C
DC
D8
D8
D8
00
00
ENDCHAR
STARTCHAR LATIN CAPITAL LETTER O
ENCODING 79
SWIDTH 480 0
DWIDTH 6 0
BBX 6 12 0 -2
BITMAP
00
00
00
38
6C
6C
CC
D8
D8
70
00
00
ENDCHAR
STARTCHAR LATIN CAPITAL LETTER P
ENCODING 80
SWIDTH 480 0
DWIDTH 6 0
BBX 6 12 0 -2
BITMAP
00
00
00
78
6C
4C
D8
F0
C0
C0
00
00
ENDCHAR
STARTCHAR LATIN CAPITAL LETTER Q
ENCODING 81
SWIDTH 480 0
DWIDTH 6 0
BBX 6 12 0 -2
BITMAP
00
00
00
38
6C
6C
CC
F4
D8
6C
00
00
ENDCHAR
STARTCHAR LATIN CAPITAL LETTER R
ENCODING 82
SWIDTH 480 0
DWIDTH 6 0
BBX 6 12 0 -2
BITMAP
00
00
00
78
6C
4C
D8
F0
D8
CC
00
00
ENDCHAR
STARTCHAR LATIN CAPITAL LETTER S
ENCODING 83
SWIDTH 480 0
DWIDTH 6 0
BBX 6 12 0 -2
BITMAP
00
00
00
3C
60
60
30
18
18
F0
00
00
ENDCHAR
STARTCHAR LATIN CAPITAL LETTER T
ENCODING 84
SWIDTH 480 0
DWIDTH 6 0
BBX 6 12 0 -2
BITMAP
00
00
00
FC
30
30
60
60
60
60
00
00
ENDCHAR
STARTCHAR LATIN CAPITAL LETTER U
ENCODING 85
SWIDTH 480 0
DWIDTH 6 0
BBX 6 12 0 -2
BITMAP
00
00
00
6C
6C
6C
CC
D8
D8
70
00
00
ENDCHAR
STARTCHAR LATIN CAPITAL LETTER V
ENCODING 86
SWIDTH 480 0
DWIDTH 6 0
BBX 6 12 0 -2
BITMAP
00
00
00
CC
CC
CC
D8
D8
70
20
00
00
ENDCHAR
STARTCHAR LATIN CAPITAL LETTER W
ENCODING 87
SWIDTH 480 0
DWIDTH 6 0
BBX 6 12 0 -2
BITMAP
00
00
00
6C
6C
6C
CC
F8
D8
88
00
00
ENDCHAR
STARTCHAR LATIN CAPITAL LETTER X
ENCODING 88
SWIDTH 480 0
DWIDTH 6 0
BBX 6 12 0 -2
BITMAP
00
00
00
6C
6C
38
30
70
D8
D8
00
00
ENDCHAR
STARTCHAR LATIN CAPITAL LETTER Y
ENCODING 89
SWIDTH 480 0
DWIDTH 6 0
BBX 6 12 0 -2
BITMAP
00
00
00
CC
CC
F8
70
60
60
60
00
00
ENDCHAR
STARTCHAR LATIN CAPITAL LETTER Z
ENCODING 90
SWIDTH 480 0
DWIDTH 6 0
BBX 6 12 0 -2
BITMAP
00
00
00
7C
0C
18
30
60
C0
F8
00
00
ENDCHAR
STARTCHAR LEFT SQUARE BRACKET
ENCODING 91
SWIDTH 480 0
DWIDTH 6 0
BBX 6 12 0 -2
BITMAP
00
38
30
30
30
30
60
60
60
60
60
70
ENDCHAR
STARTCHAR REVERSE SOLIDUS
ENCODING 92
SWIDTH 480 0
DWIDTH 6 0
BBX 6 12 0 -2
BITMAP
00
00
C0
C0
C0
60
60
30
30
18
18
18
ENDCHAR
STARTCHAR RIGHT SQUARE BRACKET
ENCODING 93
SWIDTH 480 0
DWIDTH 6 0
BBX 6 12 0 -2
BITMAP
00
38
18
18
18
18
30
30
30
30
30
70
ENDCHAR
STARTCHAR CIRCUMFLEX ACCENT
ENCODING 94
SWIDTH 480 0
DWIDTH 6 0
BBX 6 12 0 -2
BITMAP
00
00
38
6C
CC
00
00
00
00
00
00
00
ENDCHAR
STARTCHAR LOW LINE
ENCODING 95
SWIDTH 480 0
DWIDTH 6 0
BBX 6 12 0 -2
BITMAP
00
00
00
00
00
00
00
00
00
7C
F8
00
ENDCHAR
STARTCHAR GRAVE ACCENT
ENCODING 96
SWIDTH 480 0
DWIDTH 6 0
BBX 6 12 0 -2
BITMAP
00
00
60
30
30
00
00
00
00
00
00
00
ENDCHAR
STARTCHAR LATIN SMALL LETTER A
ENCODING 97
SWIDTH 480 0
DWIDTH 6 0
BBX 6 12 0 -2
BITMAP
00
00
00
00
00
3C
6C
CC
D8
78
00
00
ENDCHAR
STARTCHAR LATIN SMALL LETTER B
ENCODING 98
SWIDTH 480 0
DWIDTH 6 0
BBX 6 12 0 -2
BITMAP
00
00
30
30
60
78
6C
CC
D8
70
00
00
ENDCHAR
STARTCHAR LATIN SMALL LETTER C
ENCODING 99
SWIDTH 480 0
DWIDTH 6 0
BBX 6 12 0 -2
BITMAP
00
00
00
00
00
3C
60
C0
C0
78
00
00
ENDCHAR
STARTCHAR LATIN SMALL LETTER D
ENCODING 100
SWIDTH 480 0
DWIDTH 6 0
BBX 6 12 0 -2
BITMAP
00
00
04
04
0C
3C
6C
C8
D8
78
00
00
ENDCHAR
STARTCHAR LATIN SMALL LETTER E
ENCODING 101
SWIDTH 480 0
DWIDTH 6 0
BBX 6 12 0 -2
BITMAP
00
00
00
00
00
38
6C
F8
C0
70
00
00
ENDCHAR
STARTCHAR LATIN SMALL LETTER F
ENCODING 102
SWIDTH 480 0
DWIDTH 6 0
BBX 6 12 0 -2
BITMAP
00
00
1C
30
30
30
F8
60
60
60
60
C0
ENDCHAR
STARTCHAR LATIN SMALL LETTER G
ENCODING 103
SWIDTH 480 0
DWIDTH 6 0
BBX 6 12 0 -2
BITMAP
00
00
00
00
00
38
6C
CC
D8
78
18
70
ENDCHAR
STARTCHAR LATIN SMALL LETTER H
ENCODING 104
SWIDTH 480 0
DWIDTH 6 0
BBX 6 12 0 -2
BITMAP
00
00
30
30
60
78
6C
CC
D8
D8
00
00
ENDCHAR
STARTCHAR LATIN SMALL LETTER I
ENCODING 105
SWIDTH 480 0
DWIDTH 6 0
BBX 6 12 0 -2
BITMAP
00
00
18
18
00
30
30
60
60
30
00
00
ENDCHAR
STARTCHAR LATIN SMALL LETTER J
ENCODING 106
SWIDTH 480 0
DWIDTH 6 0
BBX 6 12 0 -2
BITMAP
00
00
18
18
00
30
30
30
60
60
60
C0
ENDCHAR
STARTCHAR LATIN SMALL LETTER K
ENCODING 107
SWIDTH 480 0
DWIDTH 6 0
BBX 6 12 0 -2
BITMAP
00
00
30
30
60
6C
78
F0
F0
D8
00
00
ENDCHAR
STARTCHAR LATIN SMALL LETTER L
ENCODING 108
SWIDTH 480 0
DWIDTH 6 0
BBX 6 12 0 -2
BITMAP
00
00
18
18
30
30
30
60
60
38
00
00
ENDCHAR
STARTCHAR LATIN SMALL LETTER M
ENCODING 109
SWIDTH 480 0
DWIDTH 6 0
BBX 6 12 0 -2
BITMAP
00
00
00
00
00
68
7C
FC
F8
D8
00
00
ENDCHAR
STARTCHAR LATIN SMALL LETTER N
ENCODING 110
SWIDTH 480 0
DWIDTH 6 0
BBX 6 12 0 -2
BITMAP
00
00
00
00
00
78
6C
CC
D8
D8
00
00
ENDCHAR
STARTCHAR LATIN SMALL LETTER O
ENCODING 111
SWIDTH 480 0
DWIDTH 6 0
BBX 6 12 0 -2
BITMAP
00
00
00
00
00
38
6C
CC
D8
70
00
00
ENDCHAR
STARTCHAR LATIN SMALL LETTER P
ENCODING 112
SWIDTH 480 0
DWIDTH 6 0
BBX 6 12 0 -2
BITMAP
00
00
00
00
00
78
6C
6C
58
F0
C0
C0
ENDCHAR
STARTCHAR LATIN SMALL LETTER Q
ENCODING 113
SWIDTH 480 0
DWIDTH 6 0
BBX 6 12 0 -2
BITMAP
00
00
00
00
00
3C
6C
CC
C8
78
18
18
ENDCHAR
STARTCHAR LATIN SMALL LETTER R
ENCODING 114
SWIDTH 480 0
DWIDTH 6 0
BBX 6 12 0 -2
BITMAP
00
00
00
00
00
6C
70
E0
C0
C0
00
00
ENDCHAR
STARTCHAR LATIN SMALL LETTER S
ENCODING 115
SWIDTH 480 0
DWIDTH 6 0
BBX 6 12 0 -2
BITMAP
00
00
00
00
00
3C
60
30
18
F0
00
00
ENDCHAR
STARTCHAR LATIN SMALL LETTER T
ENCODING 116
SWIDTH 480 0
DWIDTH 6 0
BBX 6 12 0 -2
BITMAP
00
00
18
18
30
78
30
60
60
38
00
00
ENDCHAR
STARTCHAR LATIN SMALL LETTER U
ENCODING 117
SWIDTH 480 0
DWIDTH 6 0
BBX 6 12 0 -2
BITMAP
00
00
00
00
00
6C
6C
CC
D8
78
00
00
ENDCHAR
STARTCHAR LATIN SMALL LETTER V
ENCODING 118
SWIDTH 480 0
DWIDTH 6 0
BBX 6 12 0 -2
BITMAP
00
00
00
00
00
CC
CC
D8
F0
60
00
00
ENDCHAR
STARTCHAR LATIN SMALL LETTER W
ENCODING 119
SWIDTH 480 0
DWIDTH 6 0
BBX 6 12 0 -2
BITMAP
00
00
00
00
00
6C
6C
FC
D8
88
00
00
ENDCHAR
STARTCHAR LATIN SMALL LETTER X
ENCODING 120
SWIDTH 480 0
DWIDTH 6 0
BBX 6 12 0 -2
BITMAP
00
00
00
00
00
6C
38
30
70
D8
00
00
ENDCHAR
STARTCHAR LATIN SMALL LETTER Y
ENCODING 121
SWIDTH 480 0
DWIDTH 6 0
BBX 6 12 0 -2
BITMAP
00
00
00
00
00
6C
6C
CC
D8
78
18
70
ENDCHAR
STARTCHAR LATIN SMALL LETTER Z
ENCODING 122
SWIDTH 480 0
DWIDTH 6 0
BBX 6 12 0 -2
BITMAP
00
00
00
00
00
7C
18
30
60
F8
00
00
ENDCHAR
STARTCHAR LEFT CURLY BRACKET
ENCODING 123
SWIDTH 480 0
DWIDTH 6 0
BBX 6 12 0 -2
BITMAP
00
18
30
30
30
30
E0
60
60
60
60
30
ENDCHAR
STARTCHAR VERTICAL LINE
ENCODING 124
SWIDTH 480 0
DWIDTH 6 0
BBX 6 12 0 -2
BITMAP
30
30
30
30
30
30
60
60
60
60
60
60
ENDCHAR
STARTCHAR RIGHT CURLY BRACKET
ENCODING 125
SWIDTH 480 0
DWIDTH 6 0
BBX 6 12 0 -2
BITMAP
00
30
18
18
18
18
1C
30
30
30
30
60
ENDCHAR
STARTCHAR TILDE
ENCODING 126
SWIDTH 480 0
DWIDTH 6 0
BBX 6 12 0 -2
BITMAP
00
00
00
00
00
64
EC
B8
00
00
00
00
ENDCHAR
STARTCHAR NO-BREAK SPACE
ENCODING 160
SWIDTH 480 0
DWIDTH 6 0
BBX 6 12 0 -2
BITMAP
00
00
00
00
00
00
00
00
00
00
00
00
ENDCHAR
STARTCHAR INVERTED EXCLAMATION MARK
ENCODING 161
SWIDTH 480 0
DWIDTH 6 0
BBX 6 12 0 -2
BITMAP
00
00
00
00
18
18
00
10
30
60
60
60
ENDCHAR
STARTCHAR CENT SIGN
ENCODING 162
SWIDTH 480 0
DWIDTH 6 0
BBX 6 12 0 -2
BITMAP
00
00
00
00
18
3C
60
C0
C0
78
30
00
ENDCHAR
STARTCHAR POUND SIGN
ENCODING 163
SWIDTH 480 0
DWIDTH 6 0
BBX 6 12 0 -2
BITMAP
00
00
00
1C
30
30
F8
60
60
F8
00
00
ENDCHAR
STARTCHAR CURRENCY SIGN
ENCODING 164
SWIDTH 480 0
DWIDTH 6 0
BBX 6 12 0 -2
BITMAP
00
00
00
00
6C
38
78
70
D8
00
00
00
ENDCHAR
STARTCHAR YEN SIGN
ENCODING 165
SWIDTH 480 0
DWIDTH 6 0
BBX 6 12 0 -2
BITMAP
00
00
00
CC
CC
F8
70
F8
60
60
00
00
ENDCHAR
STARTCHAR BROKEN BAR
ENCODING 166
SWIDTH 480 0
DWIDTH 6 0
BBX 6 12 0 -2
BITMAP
30
30
30
30
30
00
00
60
60
60
60
60
ENDCHAR
STARTCHAR SECTION SIGN
ENCODING 167
SWIDTH 480 0
DWIDTH 6 0
BBX 6 12 0 -2
BITMAP
00
3C
60
60
38
6C
CC
D8
70
18
18
F0
ENDCHAR
STARTCHAR DIAERESIS
ENCODING 168
SWIDTH 480 0
DWIDTH 6 0
BBX 6 12 0 -2
BITMAP
CC
CC
00
00
00
00
00
00
00
00
00
00
ENDCHAR
STARTCHAR COPYRIGHT SIGN
ENCODING 169
SWIDTH 480 0
DWIDTH 6 0
BBX 6 12 0 -2
BITMAP
00
00
00
38
6C
7C
EC
CC
F8
D8
70
00
ENDCHAR
STARTCHAR FEMININE ORDINAL INDICATOR
ENCODING 170
SWIDTH 480 0
DWIDTH 6 0
BBX 6 12 0 -2
BITMAP
00
00
3C
6C
CC
D8
78
00
00
00
00
00
ENDCHAR
STARTCHAR LEFT-POINTING DOUBLE ANGLE QUOTATION MARK
ENCODING 171
SWIDTH 480 0
DWIDTH 6 0
BBX 6 12 0 -2
BITMAP
00
00
00
00
34
6C
F8
D8
6C
00
00
00
ENDCHAR
STARTCHAR NOT SIGN
ENCODING 172
SWIDTH 480 0
DWIDTH 6 0
BBX 6 12 0 -2
BITMAP
00
00
00
00
00
00
FC
18
30
00
00
00
ENDCHAR
STARTCHAR SOFT HYPHEN
ENCODING 173
SWIDTH 480 0
DWIDTH 6 0
BBX 6 12 0 -2
BITMAP
00
00
00
00
00
78
F0
00
00
00
00
00
ENDCHAR
STARTCHAR REGISTERED SIGN
ENCODING 174
SWIDTH 480 0
DWIDTH 6 0
BBX 6 12 0 -2
BITMAP
38
6C
7C
EC
FC
D8
D8
70
00
00
00
00
ENDCHAR
STARTCHAR MACRON
ENCODING 175
SWIDTH 480 0
DWIDTH 6 0
BBX 6 12 0 -2
BITMAP
00
7C
F8
00
00
00
00
00
00
00
00
00
ENDCHAR
STARTCHAR DEGREE SIGN
ENCODING 176
SWIDTH 480 0
DWIDTH 6 0
BBX 6 12 0 -2
BITMAP
00
00
00
78
D8
F0
00
00
00
00
00
00
ENDCHAR
STARTCHAR PLUS-MINUS SIGN
ENCODING 177
SWIDTH 480 0
DWIDTH 6 0
BBX 6 12 0 -2
BITMAP
00
00
00
18
18
FC
60
60
00
78
F0
00
ENDCHAR
STARTCHAR SUPERSCRIPT TWO
ENCODING 178
SWIDTH 480 0
DWIDTH 6 0
BBX 6 12 0 -2
BITMAP
78
0C
0C
18
30
60
F8
00
00
00
00
00
ENDCHAR
STARTCHAR SUPERSCRIPT THREE
ENCODING 179
SWIDTH 480 0
DWIDTH 6 0
BBX 6 12 0 -2
BITMAP
78
0C
0C
38
18
18
F0
00
00
00
00
00
ENDCHAR
STARTCHAR ACUTE ACCENT
ENCODING 180
SWIDTH 480 0
DWIDTH 6 0
BBX 6 12 0 -2
BITMAP
00
00
18
70
C0
00
00
00
00
00
00
00
ENDCHAR
STARTCHAR MICRO SIGN
ENCODING 181
SWIDTH 480 0
DWIDTH 6 0
BBX 6 12 0 -2
BITMAP
00
00
00
00
00
6C
6C
4C
D8
F0
C0
C0
ENDCHAR
STARTCHAR PILCROW SIGN
ENCODING 182
SWIDTH 480 0
DWIDTH 6 0
BBX 6 12 0 -2
BITMAP
00
00
3C
7C
FC
FC
7C
58
58
58
00
00
ENDCHAR
STARTCHAR MIDDLE DOT
ENCODING 183
SWIDTH 480 0
DWIDTH 6 0
BBX 6 12 0 -2
BITMAP
00
00
00
00
00
30
60
00
00
00
00
00
ENDCHAR
STARTCHAR CEDILLA
ENCODING 184
SWIDTH 480 0
DWIDTH 6 0
BBX 6 12 0 -2
BITMAP
00
00
00
00
00
00
00
00
00
00
60
40
ENDCHAR
STARTCHAR SUPERSCRIPT ONE
ENCODING 185
SWIDTH 480 0
DWIDTH 6 0
BBX 6 12 0 -2
BITMAP
18
38
78
18
30
30
30
00
00
00
00
00
ENDCHAR
STARTCHAR MASCULINE ORDINAL INDICATOR
ENCODING 186
SWIDTH 480 0
DWIDTH 6 0
BBX 6 12 0 -2
BITMAP
00
00
38
6C
CC
D8
70
00
00
00
00
00
ENDCHAR
STARTCHAR RIGHT-POINTING DOUBLE ANGLE QUOTATION MARK
ENCODING 187
SWIDTH 480 0
DWIDTH 6 0
BBX 6 12 0 -2
BITMAP
00
00
00
00
D8
6C
7C
D8
B0
00
00
00
ENDCHAR
STARTCHAR VULGAR FRACTION ONE QUARTER
ENCODING 188
SWIDTH 480 0
DWIDTH 6 0
BBX 6 12 0 -2
BITMAP
00
60
E0
60
C0
C0
CC
1C
2C
78
18
18
ENDCHAR
STARTCHAR VULGAR FRACTION ONE HALF
ENCODING 189
SWIDTH 480 0
DWIDTH 6 0
BBX 6 12 0 -2
BITMAP
00
60
E0
60
C0
C0
F8
0C
0C
18
60
F8
ENDCHAR
STARTCHAR VULGAR FRACTION THREE QUARTERS
ENCODING 190
SWIDTH 480 0
DWIDTH 6 0
BBX 6 12 0 -2
BITMAP
00
70
18
70
30
30
EC
1C
2C
78
18
18
ENDCHAR
STARTCHAR INVERTED QUESTION MARK
ENCODING 191
SWIDTH 480 0
DWIDTH 6 0
BBX 6 12 0 -2
BITMAP
00
00
00
00
18
18
00
18
70
C0
C0
78
ENDCHAR
STARTCHAR LATIN CAPITAL LETTER A WITH GRAVE
ENCODING 192
SWIDTH 480 0
DWIDTH 6 0
BBX 6 12 0 -2
BITMAP
30
18
00
38
6C
6C
6C
F8
D8
D8
00
00
ENDCHAR
STARTCHAR LATIN CAPITAL LETTER A WITH ACUTE
ENCODING 193
SWIDTH 480 0
DWIDTH 6 0
BBX 6 12 0 -2
BITMAP
0C
18
00
38
6C
6C
6C
F8
D8
D8
00
00
ENDCHAR
STARTCHAR LATIN CAPITAL LETTER A WITH CIRCUMFLEX
ENCODING 194
SWIDTH 480 0
DWIDTH 6 0
BBX 6 12 0 -2
BITMAP
18
3C
00
38
6C
6C
6C
F8
D8
D8
00
00
ENDCHAR
STARTCHAR LATIN CAPITAL LETTER A WITH TILDE
ENCODING 195
SWIDTH 480 0
DWIDTH 6 0
BBX 6 12 0 -2
BITMAP
6C
D8
00
38
6C
6C
6C
F8
D8
D8
00
00
ENDCHAR
STARTCHAR LATIN CAPITAL LETTER A WITH DIAERESIS
ENCODING 196
SWIDTH 480 0
DWIDTH 6 0
BBX 6 12 0 -2
BITMAP
6C
6C
00
38
6C
6C
6C
F8
D8
D8
00
00
ENDCHAR
STARTCHAR LATIN CAPITAL LETTER A WITH RING ABOVE
ENCODING 197
SWIDTH 480 0
DWIDTH 6 0
BBX 6 12 0 -2
BITMAP
18
3C
18
38
6C
6C
6C
F8
D8
D8
00
00
ENDCHAR
STARTCHAR LATIN CAPITAL LETTER AE
ENCODING 198
SWIDTH 480 0
DWIDTH 6 0
BBX 6 12 0 -2
BITMAP
00
00
00
7C
D8
D8
DC
F0
B0
B8
00
00
ENDCHAR
STARTCHAR LATIN CAPITAL LETTER C WITH CEDILLA
ENCODING 199
SWIDTH 480 0
DWIDTH 6 0
BBX 6 12 0 -2
BITMAP
00
00
00
3C
60
60
C0
C0
C0
78
30
20
ENDCHAR
STARTCHAR LATIN CAPITAL LETTER E WITH GRAVE
ENCODING 200
SWIDTH 480 0
DWIDTH 6 0
BBX 6 12 0 -2
BITMAP
30
18
00
7C
60
60
F0
C0
C0
F8
00
00
ENDCHAR
STARTCHAR LATIN CAPITAL LETTER E WITH ACUTE
ENCODING 201
SWIDTH 480 0
DWIDTH 6 0
BBX 6 12 0 -2
BITMAP
0C
18
00
7C
60
60
F0
C0
C0
F8
00
00
ENDCHAR
STARTCHAR LATIN CAPITAL LETTER E WITH CIRCUMFLEX
ENCODING 202
SWIDTH 480 0
DWIDTH 6 0
BBX 6 12 0 -2
BITMAP
18
3C
00
7C
60
60
F0
C0
C0
F8
00
00
ENDCHAR
STARTCHAR LATIN CAPITAL LETTER E WITH DIAERESIS
ENCODING 203
SWIDTH 480 0
DWIDTH 6 0
BBX 6 12 0 -2
BITMAP
6C
6C
00
7C
60
60
F0
C0
C0
F8
00
00
ENDCHAR
STARTCHAR LATIN CAPITAL LETTER I WITH GRAVE
ENCODING 204
SWIDTH 480 0
DWIDTH 6 0
BBX 6 12 0 -2
BITMAP
60
30
00
78
30
30
60
60
60
F0
00
00
ENDCHAR
STARTCHAR LATIN CAPITAL LETTER I WITH ACUTE
ENCODING 205
SWIDTH 480 0
DWIDTH 6 0
BBX 6 12 0 -2
BITMAP
0C
18
00
78
30
30
60
60
60
F0
00
00
ENDCHAR
STARTCHAR LATIN CAPITAL LETTER I WITH CIRCUMFLEX
ENCODING 206
SWIDTH 480 0
DWIDTH 6 0
BBX 6 12 0 -2
BITMAP
18
3C
00
78
30
30
60
60
60
F0
00
00
ENDCHAR
STARTCHAR LATIN CAPITAL LETTER I WITH DIAERESIS
ENCODING 207
SWIDTH 480 0
DWIDTH 6 0
BBX 6 12 0 -2
BITMAP
6C
6C
00
78
30
30
60
60
60
F0
00
00
ENDCHAR
STARTCHAR LATIN CAPITAL LETTER ETH
ENCODING 208
SWIDTH 480 0
DWIDTH 6 0
BBX 6 12 0 -2
BITMAP
00
00
00
78
6C
6C
FC
D8
D8
F0
00
00
ENDCHAR
STARTCHAR LATIN CAPITAL LETTER N WITH TILDE
ENCODING 209
SWIDTH 480 0
DWIDTH 6 0
BBX 6 12 0 -2
BITMAP
6C
D8
00
6C
6C
6C
FC
D8
D8
D8
00
00
ENDCHAR
STARTCHAR LATIN CAPITAL LETTER O WITH GRAVE
ENCODING 210
SWIDTH 480 0
DWIDTH 6 0
BBX 6 12 0 -2
BITMAP
30
18
00
38
6C
6C
CC
D8
D8
70
00
00
ENDCHAR
STARTCHAR LATIN CAPITAL LETTER O WITH ACUTE
ENCODING 211
SWIDTH 480 0
DWIDTH 6 0
BBX 6 12 0 -2
BITMAP
0C
18
00
38
6C
6C
CC
D8
D8
70
00
00
ENDCHAR
STARTCHAR LATIN CAPITAL LETTER O WITH CIRCUMFLEX
ENCODING 212
SWIDTH 480 0
DWIDTH 6 0
BBX 6 12 0 -2
BITMAP
18
3C
00
38
6C
6C
CC
D8
D8
70
00
00
ENDCHAR
STARTCHAR LATIN CAPITAL LETTER O WITH TILDE
ENCODING 213
SWIDTH 480 0
DWIDTH 6 0
BBX 6 12 0 -2
BITMAP
6C
D8
00
38
6C
6C
CC
D8
D8
70
00
00
ENDCHAR
STARTCHAR LATIN CAPITAL LETTER O WITH DIAERESIS
ENCODING 214
SWIDTH 480 0
DWIDTH 6 0
BBX 6 12 0 -2
BITMAP
6C
6C
00
38
6C
6C
CC
D8
D8
70
00
00
ENDCHAR
STARTCHAR MULTIPLICATION SIGN
ENCODING 215
SWIDTH 480 0
DWIDTH 6 0
BBX 6 12 0 -2
BITMAP
00
00
00
00
6C
78
30
78
D8
00
00
00
ENDCHAR
STARTCHAR LATIN CAPITAL LETTER O WITH STROKE
ENCODING 216
SWIDTH 480 0
DWIDTH 6 0
BBX 6 12 0 -2
BITMAP
00
00
00
3C
6C
7C
FC
F8
D8
F0
00
00
ENDCHAR
STARTCHAR LATIN CAPITAL LETTER U WITH GRAVE
ENCODING 217
SWIDTH 480 0
DWIDTH 6 0
BBX 6 12 0 -2
BITMAP
30
18
00
6C
6C
6C
CC
D8
D8
70
00
00
ENDCHAR
STARTCHAR LATIN CAPITAL LETTER U WITH ACUTE
ENCODING 218
SWIDTH 480 0
DWIDTH 6 0
BBX 6 12 0 -2
BITMAP
0C
18
00
6C
6C
6C
CC
D8
D8
70
00
00
ENDCHAR
STARTCHAR LATIN CAPITAL LETTER U WITH CIRCUMFLEX
ENCODING 219
SWIDTH 480 0
DWIDTH 6 0
BBX 6 12 0 -2
BITMAP
18
3C
00
6C
6C
6C
CC
D8
D8
70
00
00
ENDCHAR
STARTCHAR LATIN CAPITAL LETTER U WITH DIAERESIS
ENCODING 220
SWIDTH 480 0
DWIDTH 6 0
BBX 6 12 0 -2
BITMAP
6C
6C
00
6C
6C
6C
CC
D8
D8
70
00
00
ENDCHAR
STARTCHAR LATIN CAPITAL LETTER Y WITH ACUTE
ENCODING 221
SWIDTH 480 0
DWIDTH 6 0
BBX 6 12 0 -2
BITMAP
0C
18
00
CC
CC
F8
70
60
60
60
00
00
ENDCHAR
STARTCHAR LATIN CAPITAL LETTER THORN
ENCODING 222
SWIDTH 480 0
DWIDTH 6 0
BBX 6 12 0 -2
BITMAP
00
00
00
60
78
6C
CC
D8
F0
C0
00
00
ENDCHAR
STARTCHAR LATIN SMALL LETTER SHARP S
ENCODING 223
SWIDTH 480 0
DWIDTH 6 0
BBX 6 12 0 -2
BITMAP
00
00
38
6C
6C
78
6C
CC
EC
D8
00
00
ENDCHAR
STARTCHAR LATIN SMALL LETTER A WITH GRAVE
ENCODING 224
SWIDTH 480 0
DWIDTH 6 0
BBX 6 12 0 -2
BITMAP
00
30
18
00
00
3C
6C
CC
D8
78
00
00
ENDCHAR
STARTCHAR LATIN SMALL LETTER A WITH ACUTE
ENCODING 225
SWIDTH 480 0
DWIDTH 6 0
BBX 6 12 0 -2
BITMAP
00
0C
18
00
00
3C
6C
CC
D8
78
00
00
ENDCHAR
STARTCHAR LATIN SMALL LETTER A WITH CIRCUMFLEX
ENCODING 226
SWIDTH 480 0
DWIDTH 6 0
BBX 6 12 0 -2
BITMAP
00
18
3C
00
00
3C
6C
CC
D8
78
00
00
ENDCHAR
STARTCHAR LATIN SMALL LETTER A WITH TILDE
ENCODING 227
SWIDTH 480 0
DWIDTH 6 0
BBX 6 12 0 -2
BITMAP
00
6C
D8
00
00
3C
6C
CC
D8
78
00
00
ENDCHAR
STARTCHAR LATIN SMALL LETTER A WITH DIAERESIS
ENCODING 228
SWIDTH 480 0
DWIDTH 6 0
BBX 6 12 0 -2
BITMAP
00
6C
6C
00
00
3C
6C
CC
D8
78
00
00
ENDCHAR
STARTCHAR LATIN SMALL LETTER A WITH RING ABOVE
ENCODING 229
SWIDTH 480 0
DWIDTH 6 0
BBX 6 12 0 -2
BITMAP
18
3C
18
00
00
3C
6C
CC
D8
78
00
00
ENDCHAR
STARTCHAR LATIN SMALL LETTER AE
ENCODING 230
SWIDTH 480 0
DWIDTH 6 0
BBX 6 12 0 -2
BITMAP
00
00
00
00
00
38
54
D8
F0
78
00
00
ENDCHAR
STARTCHAR LATIN SMALL LETTER C WITH CEDILLA
ENCODING 231
SWIDTH 480 0
DWIDTH 6 0
BBX 6 12 0 -2
BITMAP
00
00
00
00
00
3C
60
C0
C0
78
30
20
ENDCHAR
STARTCHAR LATIN SMALL LETTER E WITH GRAVE
ENCODING 232
SWIDTH 480 0
DWIDTH 6 0
BBX 6 12 0 -2
BITMAP
00
30
18
00
00
38
6C
F8
C0
70
00
00
ENDCHAR
STARTCHAR LATIN SMALL LETTER E WITH ACUTE
ENCODING 233
SWIDTH 480 0
DWIDTH 6 0
BBX 6 12 0 -2
BITMAP
00
0C
18
00
00
38
6C
F8
C0
70
00
00
ENDCHAR
STARTCHAR LATIN SMALL LETTER E WITH CIRCUMFLEX
ENCODING 234
SWIDTH 480 0
DWIDTH 6 0
BBX 6 12 0 -2
BITMAP
00
18
3C
00
00
38
6C
F8
C0
70
00
00
ENDCHAR
STARTCHAR LATIN SMALL LETTER E WITH DIAERESIS
ENCODING 235
SWIDTH 480 0
DWIDTH 6 0
BBX 6 12 0 -2
BITMAP
00
6C
6C
00
00
38
6C
F8
C0
70
00
00
ENDCHAR
STARTCHAR LATIN SMALL LETTER I WITH GRAVE
ENCODING 236
SWIDTH 480 0
DWIDTH 6 0
BBX 6 12 0 -2
BITMAP
00
30
18
00
00
30
30
60
60
30
00
00
ENDCHAR
STARTCHAR LATIN SMALL LETTER I WITH ACUTE
ENCODING 237
SWIDTH 480 0
DWIDTH 6 0
BBX 6 12 0 -2
BITMAP
00
0C
18
00
00
30
30
60
60
30
00
00
ENDCHAR
STARTCHAR LATIN SMALL LETTER I WITH CIRCUMFLEX
ENCODING 238
SWIDTH 480 0
DWIDTH 6 0
BBX 6 12 0 -2
BITMAP
00
18
3C
00
00
30
30
60
60
30
00
00
ENDCHAR
STARTCHAR LATIN SMALL LETTER I WITH DIAERESIS
ENCODING 239
SWIDTH 480 0
DWIDTH 6 0
BBX 6 12 0 -2
BITMAP
00
6C
6C
00
00
30
30
60
60
30
00
00
ENDCHAR
STARTCHAR LATIN SMALL LETTER ETH
ENCODING 240
SWIDTH 480 0
DWIDTH 6 0
BBX 6 12 0 -2
BITMAP
00
68
30
58
0C
3C
6C
CC
D8
70
00
00
ENDCHAR
STARTCHAR LATIN SMALL LETTER N WITH TILDE
ENCODING 241
SWIDTH 480 0
DWIDTH 6 0
BBX 6 12 0 -2
BITMAP
00
6C
D8
00
00
78
6C
CC
D8
D8
00
00
ENDCHAR
STARTCHAR LATIN SMALL LETTER O WITH GRAVE
ENCODING 242
SWIDTH 480 0
DWIDTH 6 0
BBX 6 12 0 -2
BITMAP
00
30
18
00
00
38
6C
CC
D8
70
00
00
ENDCHAR
STARTCHAR LATIN SMALL LETTER O WITH ACUTE
ENCODING 243
SWIDTH 480 0
DWIDTH 6 0
BBX 6 12 0 -2
BITMAP
00
0C
18
00
00
38
6C
CC
D8
70
00
00
ENDCHAR
STARTCHAR LATIN SMALL LETTER O WITH CIRCUMFLEX
ENCODING 244
SWIDTH 480 0
DWIDTH 6 0
BBX 6 12 0 -2
BITMAP
00
18
3C
00
00
38
6C
CC
D8
70
00
00
ENDCHAR
STARTCHAR LATIN SMALL LETTER O WITH TILDE
ENCODING 245
SWIDTH 480 0
DWIDTH 6 0
BBX 6 12 0 -2
BITMAP
00
6C
D8
00
00
38
6C
CC
D8
70
00
00
ENDCHAR
STARTCHAR LATIN SMALL LETTER O WITH DIAERESIS
ENCODING 246
SWIDTH 480 0
DWIDTH 6 0
BBX 6 12 0 -2
BITMAP
00
6C
6C
00
00
38
6C
CC
D8
70
00
00
ENDCHAR
STARTCHAR DIVISION SIGN
ENCODING 247
SWIDTH 480 0
DWIDTH 6 0
BBX 6 12 0 -2
BITMAP
00
00
00
30
30
00
FC
00
60
60
00
00
ENDCHAR
STARTCHAR LATIN SMALL LETTER O WITH STROKE
ENCODING 248
SWIDTH 480 0
DWIDTH 6 0
BBX 6 12 0 -2
BITMAP
00
00
00
00
00
3C
6C
FC
D8
F0
00
00
ENDCHAR
STARTCHAR LATIN SMALL LETTER U WITH GRAVE
ENCODING 249
SWIDTH 480 0
DWIDTH 6 0
BBX 6 12 0 -2
BITMAP
00
30
18
00
00
6C
6C
CC
D8
78
00
00
ENDCHAR
STARTCHAR LATIN SMALL LETTER U WITH ACUTE
ENCODING 250
SWIDTH 480 0
DWIDTH 6 0
BBX 6 12 0 -2
BITMAP
00
0C
18
00
00
6C
6C
CC
D8
78
00
00
ENDCHAR
STARTCHAR LATIN SMALL LETTER U WITH CIRCUMFLEX
ENCODING 251
SWIDTH 480 0
DWIDTH 6 0
BBX 6 12 0 -2
BITMAP
00
18
3C
00
00
6C
6C
CC
D8
78
00
00
ENDCHAR
STARTCHAR LATIN SMALL LETTER U WITH DIAERESIS
ENCODING 252
SWIDTH 480 0
DWIDTH 6 0
BBX 6 12 0 -2
BITMAP
00
6C
6C
00
00
6C
6C
CC
D8
78
00
00
ENDCHAR
STARTCHAR LATIN SMALL LETTER Y WITH ACUTE
ENCODING 253
SWIDTH 480 0
DWIDTH 6 0
BBX 6 12 0 -2
BITMAP
00
0C
18
00
00
6C
6C
CC
D8
78
18
70
ENDCHAR
STARTCHAR LATIN SMALL LETTER THORN
ENCODING 254
SWIDTH 480 0
DWIDTH 6 0
BBX 6 12 0 -2
BITMAP
00
00
00
60
60
78
6C
CC
D8
F0
C0
C0
ENDCHAR
STARTCHAR LATIN SMALL LETTER Y WITH DIAERESIS
ENCODING 255
SWIDTH 480 0
DWIDTH 6 0
BBX 6 12 0 -2
BITMAP
00
6C
6C
00
00
6C
6C
CC
D8
78
18
70
ENDCHAR
STARTCHAR LATIN CAPITAL LETTER A WITH MACRON
ENCODING 256
SWIDTH 480 0
DWIDTH 6 0
BBX 6 12 0 -2
BITMAP
3C
3C
00
38
6C
6C
6C
F8
D8
D8
00
00
ENDCHAR
STARTCHAR LATIN SMALL LETTER A WITH MACRON
ENCODING 257
SWIDTH 480 0
DWIDTH 6 0
BBX 6 12 0 -2
BITMAP
00
3C
3C
00
00
3C
6C
CC
D8
78
00
00
ENDCHAR
STARTCHAR LATIN CAPITAL LETTER A WITH BREVE
ENCODING 258
SWIDTH 480 0
DWIDTH 6 0
BBX 6 12 0 -2
BITMAP
6C
38
00
38
6C
6C
6C
F8
D8
D8
00
00
ENDCHAR
STARTCHAR LATIN SMALL LETTER A WITH BREVE
ENCODING 259
SWIDTH 480 0
DWIDTH 6 0
BBX 6 12 0 -2
BITMAP
00
6C
38
00
00
3C
6C
CC
D8
78
00
00
ENDCHAR
STARTCHAR LATIN CAPITAL LETTER A WITH OGONEK
ENCODING 260
SWIDTH 480 0
DWIDTH 6 0
BBX 6 12 0 -2
BITMAP
00
00
00
38
6C
6C
6C
F8
D8
D8
18
0C
ENDCHAR
STARTCHAR LATIN SMALL LETTER A WITH OGONEK
ENCODING 261
SWIDTH 480 0
DWIDTH 6 0
BBX 6 12 0 -2
BITMAP
00
00
00
00
00
3C
6C
CC
D8
78
18
0C
ENDCHAR
STARTCHAR LATIN CAPITAL LETTER C WITH ACUTE
ENCODING 262
SWIDTH 480 0
DWIDTH 6 0
BBX 6 12 0 -2
BITMAP
0C
18
00
3C
60
60
C0
C0
C0
78
00
00
ENDCHAR
STARTCHAR LATIN SMALL LETTER C WITH ACUTE
ENCODING 263
SWIDTH 480 0
DWIDTH 6 0
BBX 6 12 0 -2
BITMAP
00
0C
18
00
00
3C
60
C0
C0
78
00
00
ENDCHAR
STARTCHAR LATIN CAPITAL LETTER C WITH CIRCUMFLEX
ENCODING 264
SWIDTH 480 0
DWIDTH 6 0
BBX 6 12 0 -2
BITMAP
18
3C
00
3C
60
60
C0
C0
C0
78
00
00
ENDCHAR
STARTCHAR LATIN SMALL LETTER C WITH CIRCUMFLEX
ENCODING 265
SWIDTH 480 0
DWIDTH 6 0
BBX 6 12 0 -2
BITMAP
00
18
3C
00
00
3C
60
C0
C0
78
00
00
ENDCHAR
STARTCHAR LATIN CAPITAL LETTER C WITH DOT ABOVE
ENCODING 266
SWIDTH 480 0
DWIDTH 6 0
BBX 6 12 0 -2
BITMAP
18
18
00
3C
60
60
C0
C0
C0
78
00
00
ENDCHAR
STARTCHAR LATIN SMALL LETTER C WITH DOT ABOVE
ENCODING 267
SWIDTH 480 0
DWIDTH 6 0
BBX 6 12 0 -2
BITMAP
00
00
18
18
00
3C
60
C0
C0
78
00
00
ENDCHAR
STARTCHAR LATIN CAPITAL LETTER C WITH CARON
ENCODING 268
SWIDTH 480 0
DWIDTH 6 0
BBX 6 12 0 -2
BITMAP
3C
18
00
3C
60
60
C0
C0
C0
78
00
00
ENDCHAR
STARTCHAR LATIN SMALL LETTER C WITH CARON
ENCODING 269
SWIDTH 480 0
DWIDTH 6 0
BBX 6 12 0 -2
BITMAP
00
3C
18
00
00
3C
60
C0
C0
78
00
00
ENDCHAR
STARTCHAR LATIN CAPITAL LETTER D WITH CARON
ENCODING 270
SWIDTH 480 0
DWIDTH 6 0
BBX 6 12 0 -2
BITMAP
3C
18
00
78
6C
6C
CC
D8
D8
F0
00
00
ENDCHAR
STARTCHAR LATIN SMALL LETTER D WITH CARON
ENCODING 271
SWIDTH 480 0
DWIDTH 6 0
BBX 6 12 0 -2
BITMAP
0C
18
00
0C
0C
3C
6C
C8
D8
78
00
00
ENDCHAR
STARTCHAR LATIN CAPITAL LETTER D WITH STROKE
ENCODING 272
SWIDTH 480 0
DWIDTH 6 0
BBX 6 12 0 -2
BITMAP
00
00
00
78
6C
6C
FC
D8
D8
F0
00
00
ENDCHAR
STARTCHAR LATIN SMALL LETTER D WITH STROKE
ENCODING 273
SWIDTH 480 0
DWIDTH 6 0
BBX 6 12 0 -2
BITMAP
00
00
0C
3C
0C
3C
6C
C8
D8
78
00
00
ENDCHAR
STARTCHAR LATIN CAPITAL LETTER E WITH MACRON
ENCODING 274
SWIDTH 480 0
DWIDTH 6 0
BBX 6 12 0 -2
BITMAP
3C
3C
00
7C
60
60
F0
C0
C0
F8
00
00
ENDCHAR
STARTCHAR LATIN SMALL LETTER E WITH MACRON
ENCODING 275
SWIDTH 480 0
DWIDTH 6 0
BBX 6 12 0 -2
BITMAP
00
3C
3C
00
00
38
6C
F8
C0
70
00
00
ENDCHAR
STARTCHAR LATIN CAPITAL LETTER E WITH DOT ABOVE
ENCODING 278
SWIDTH 480 0
DWIDTH 6 0
BBX 6 12 0 -2
BITMAP
18
18
00
7C
60
60
F0
C0
C0
F8
00
00
ENDCHAR
STARTCHAR LATIN SMALL LETTER E WITH DOT ABOVE
ENCODING 279
SWIDTH 480 0
DWIDTH 6 0
BBX 6 12 0 -2
BITMAP
00
00
18
18
00
38
6C
F8
C0
70
00
00
ENDCHAR
STARTCHAR LATIN CAPITAL LETTER E WITH OGONEK
ENCODING 280
SWIDTH 480 0
DWIDTH 6 0
BBX 6 12 0 -2
BITMAP
00
00
00
7C
60
60
F0
C0
C0
F8
18
0C
ENDCHAR
STARTCHAR LATIN SMALL LETTER E WITH OGONEK
ENCODING 281
SWIDTH 480 0
DWIDTH 6 0
BBX 6 12 0 -2
BITMAP
00
00
00
00
00
38
6C
F8
C0
70
18
0C
ENDCHAR
STARTCHAR LATIN CAPITAL LETTER E WITH CARON
ENCODING 282
SWIDTH 480 0
DWIDTH 6 0
BBX 6 12 0 -2
BITMAP
3C
18
00
7C
60
60
F0
C0
C0
F8
00
00
ENDCHAR
STARTCHAR LATIN SMALL LETTER E WITH CARON
ENCODING 283
SWIDTH 480 0
DWIDTH 6 0
BBX 6 12 0 -2
BITMAP
00
3C
18
00
00
38
6C
F8
C0
70
00
00
ENDCHAR
STARTCHAR LATIN CAPITAL LETTER G WITH CIRCUMFLEX
ENCODING 284
SWIDTH 480 0
DWIDTH 6 0
BBX 6 12 0 -2
BITMAP
18
3C
00
3C
60
60
CC
CC
D8
78
00
00
ENDCHAR
STARTCHAR LATIN SMALL LETTER G WITH CIRCUMFLEX
ENCODING 285
SWIDTH 480 0
DWIDTH 6 0
BBX 6 12 0 -2
BITMAP
00
18
3C
00
00
38
6C
CC
D8
78
18
70
ENDCHAR
STARTCHAR LATIN CAPITAL LETTER G WITH BREVE
ENCODING 286
SWIDTH 480 0
DWIDTH 6 0
BBX 6 12 0 -2
BITMAP
6C
38
00
3C
60
60
CC
CC
D8
78
00
00
ENDCHAR
STARTCHAR LATIN SMALL LETTER G WITH BREVE
ENCODING 287
SWIDTH 480 0
DWIDTH 6 0
BBX 6 12 0 -2
BITMAP
00
6C
38
00
00
38
6C
CC
D8
78
18
70
ENDCHAR
STARTCHAR LATIN CAPITAL LETTER G WITH DOT ABOVE
ENCODING 288
SWIDTH 480 0
DWIDTH 6 0
BBX 6 12 0 -2
BITMAP
18
18
00
3C
60
60
CC
CC
D8
78
00
00
ENDCHAR
STARTCHAR LATIN SMALL LETTER G WITH DOT ABOVE
ENCODING 289
SWIDTH 480 0
DWIDTH 6 0
BBX 6 12 0 -2
BITMAP
00
00
18
18
00
38
6C
CC
DC
78
18
70
ENDCHAR
STARTCHAR LATIN CAPITAL LETTER G WITH CEDILLA
ENCODING 290
SWIDTH 480 0
DWIDTH 6 0
BBX 6 12 0 -2
BITMAP
00
00
00
3C
60
60
CC
CC
D8
78
30
60
ENDCHAR
STARTCHAR LATIN SMALL LETTER G WITH CEDILLA
ENCODING 291
SWIDTH 480 0
DWIDTH 6 0
BBX 6 12 0 -2
BITMAP
00
0C
18
00
00
38
6C
CC
D8
78
18
70
ENDCHAR
STARTCHAR LATIN CAPITAL LETTER H WITH CIRCUMFLEX
ENCODING 292
SWIDTH 480 0
DWIDTH 6 0
BBX 6 12 0 -2
BITMAP
18
3C
00
6C
6C
6C
FC
D8
D8
D8
00
00
ENDCHAR
STARTCHAR LATIN SMALL LETTER H WITH CIRCUMFLEX
ENCODING 293
SWIDTH 480 0
DWIDTH 6 0
BBX 6 12 0 -2
BITMAP
18
3C
60
60
60
78
CC
CC
D8
D8
00
00
ENDCHAR
STARTCHAR LATIN CAPITAL LETTER H WITH STROKE
ENCODING 294
SWIDTH 480 0
DWIDTH 6 0
BBX 6 12 0 -2
BITMAP
00
00
00
6C
7C
6C
FC
D8
D8
D8
00
00
ENDCHAR
STARTCHAR LATIN SMALL LETTER H WITH STROKE
ENCODING 295
SWIDTH 480 0
DWIDTH 6 0
BBX 6 12 0 -2
BITMAP
00
00
60
78
60
78
CC
CC
D8
D8
00
00
ENDCHAR
STARTCHAR LATIN CAPITAL LETTER I WITH TILDE
ENCODING 296
SWIDTH 480 0
DWIDTH 6 0
BBX 6 12 0 -2
BITMAP
6C
D8
00
78
30
30
60
60
60
F0
00
00
ENDCHAR
STARTCHAR LATIN SMALL LETTER I WITH TILDE
ENCODING 297
SWIDTH 480 0
DWIDTH 6 0
BBX 6 12 0 -2
BITMAP
00
6C
D8
00
00
30
30
60
60
30
00
00
ENDCHAR
STARTCHAR LATIN CAPITAL LETTER I WITH MACRON
ENCODING 298
SWIDTH 480 0
DWIDTH 6 0
BBX 6 12 0 -2
BITMAP
3C
3C
00
78
30
30
60
60
60
F0
00
00
ENDCHAR
STARTCHAR LATIN SMALL LETTER I WITH MACRON
ENCODING 299
SWIDTH 480 0
DWIDTH 6 0
BBX 6 12 0 -2
BITMAP
00
3C
3C
00
00
30
30
60
60
30
00
00
ENDCHAR
STARTCHAR LATIN CAPITAL LETTER I WITH OGONEK
ENCODING 302
SWIDTH 480 0
DWIDTH 6 0
BBX 6 12 0 -2
BITMAP
00
00
00
78
30
30
60
60
60
F0
60
30
ENDCHAR
STARTCHAR LATIN SMALL LETTER I WITH OGONEK
ENCODING 303
SWIDTH 480 0
DWIDTH 6 0
BBX 6 12 0 -2
BITMAP
00
00
18
18
00
30
30
60
60
30
18
0C
ENDCHAR
STARTCHAR LATIN CAPITAL LETTER I WITH DOT ABOVE
ENCODING 304
SWIDTH 480 0
DWIDTH 6 0
BBX 6 12 0 -2
BITMAP
18
18
00
78
30
30
60
60
60
F0
00
00
ENDCHAR
STARTCHAR LATIN SMALL LETTER DOTLESS I
ENCODING 305
SWIDTH 480 0
DWIDTH 6 0
BBX 6 12 0 -2
BITMAP
00
00
00
00
00
30
30
60
60
30
00
00
ENDCHAR
STARTCHAR LATIN CAPITAL LETTER J WITH CIRCUMFLEX
ENCODING 308
SWIDTH 480 0
DWIDTH 6 0
BBX 6 12 0 -2
BITMAP
18
3C
00
0C
0C
0C
18
18
D8
70
00
00
ENDCHAR
STARTCHAR LATIN SMALL LETTER J WITH CIRCUMFLEX
ENCODING 309
SWIDTH 480 0
DWIDTH 6 0
BBX 6 12 0 -2
BITMAP
00
18
3C
00
00
30
30
60
60
60
60
C0
ENDCHAR
STARTCHAR LATIN CAPITAL LETTER K WITH CEDILLA
ENCODING 310
SWIDTH 480 0
DWIDTH 6 0
BBX 6 12 0 -2
BITMAP
00
00
00
6C
78
70
E0
F0
D8
CC
30
60
ENDCHAR
STARTCHAR LATIN SMALL LETTER K WITH CEDILLA
ENCODING 311
SWIDTH 480 0
DWIDTH 6 0
BBX 6 12 0 -2
BITMAP
00
00
30
30
60
6C
78
F0
D8
CC
30
60
ENDCHAR
STARTCHAR LATIN SMALL LETTER KRA
ENCODING 312
SWIDTH 480 0
DWIDTH 6 0
BBX 6 12 0 -2
BITMAP
00
00
00
00
00
6C
78
F0
D8
CC
00
00
ENDCHAR
STARTCHAR LATIN CAPITAL LETTER L WITH ACUTE
ENCODING 313
SWIDTH 480 0
DWIDTH 6 0
BBX 6 12 0 -2
BITMAP
18
30
00
60
60
60
C0
C0
C0
FC
00
00
ENDCHAR
STARTCHAR LATIN SMALL LETTER L WITH ACUTE
ENCODING 314
SWIDTH 480 0
DWIDTH 6 0
BBX 6 12 0 -2
BITMAP
0C
18
30
30
60
60
60
C0
C0
70
00
00
ENDCHAR
STARTCHAR LATIN CAPITAL LETTER L WITH CEDILLA
ENCODING 315
SWIDTH 480 0
DWIDTH 6 0
BBX 6 12 0 -2
BITMAP
00
00
00
60
60
60
C0
C0
C0
FC
30
60
ENDCHAR
STARTCHAR LATIN SMALL LETTER L WITH CEDILLA
ENCODING 316
SWIDTH 480 0
DWIDTH 6 0
BBX 6 12 0 -2
BITMAP
00
00
18
18
30
30
30
60
60
38
30
60
ENDCHAR
STARTCHAR LATIN CAPITAL LETTER L WITH CARON
ENCODING 317
SWIDTH 480 0
DWIDTH 6 0
BBX 6 12 0 -2
BITMAP
00
00
00
6C
78
60
C0
C0
C0
FC
00
00
ENDCHAR
STARTCHAR LATIN SMALL LETTER L WITH CARON
ENCODING 318
SWIDTH 480 0
DWIDTH 6 0
BBX 6 12 0 -2
BITMAP
00
00
3C
38
60
60
60
C0
C0
70
00
00
ENDCHAR
STARTCHAR LATIN CAPITAL LETTER L WITH STROKE
ENCODING 321
SWIDTH 480 0
DWIDTH 6 0
BBX 6 12 0 -2
BITMAP
00
00
00
60
78
70
E0
C0
C0
FC
00
00
ENDCHAR
STARTCHAR LATIN SMALL LETTER L WITH STROKE
ENCODING 322
SWIDTH 480 0
DWIDTH 6 0
BBX 6 12 0 -2
BITMAP
00
00
18
18
30
78
E0
60
60
38
00
00
ENDCHAR
STARTCHAR LATIN CAPITAL LETTER N WITH ACUTE
ENCODING 323
SWIDTH 480 0
DWIDTH 6 0
BBX 6 12 0 -2
BITMAP
0C
18
00
6C
6C
6C
DC
D8
D8
D8
00
00
ENDCHAR
STARTCHAR LATIN SMALL LETTER N WITH ACUTE
ENCODING 324
SWIDTH 480 0
DWIDTH 6 0
BBX 6 12 0 -2
BITMAP
00
0C
18
00
00
78
6C
CC
D8
D8
00
00
ENDCHAR
STARTCHAR LATIN CAPITAL LETTER N WITH CEDILLA
ENCODING 325
SWIDTH 480 0
DWIDTH 6 0
BBX 6 12 0 -2
BITMAP
00
00
00
6C
6C
6C
DC
D8
D8
D8
30
60
ENDCHAR
STARTCHAR LATIN SMALL LETTER N WITH CEDILLA
ENCODING 326
SWIDTH 480 0
DWIDTH 6 0
BBX 6 12 0 -2
BITMAP
00
00
00
00
00
78
6C
CC
D8
D8
30
60
ENDCHAR
STARTCHAR LATIN CAPITAL LETTER N WITH CARON
ENCODING 327
SWIDTH 480 0
DWIDTH 6 0
BBX 6 12 0 -2
BITMAP
3C
18
00
6C
6C
6C
DC
D8
D8
D8
00
00
ENDCHAR
STARTCHAR LATIN SMALL LETTER N WITH CARON
ENCODING 328
SWIDTH 480 0
DWIDTH 6 0
BBX 6 12 0 -2
BITMAP
00
3C
18
00
00
78
6C
CC
D8
D8
00
00
ENDCHAR
STARTCHAR LATIN CAPITAL LETTER ENG
ENCODING 330
SWIDTH 480 0
DWIDTH 6 0
BBX 6 12 0 -2
BITMAP
00
00
00
6C
6C
6C
DC
D8
D8
D8
18
30
ENDCHAR
STARTCHAR LATIN SMALL LETTER ENG
ENCODING 331
SWIDTH 480 0
DWIDTH 6 0
BBX 6 12 0 -2
BITMAP
00
00
00
00
00
78
6C
CC
D8
D8
18
30
ENDCHAR
STARTCHAR LATIN CAPITAL LETTER O WITH MACRON
ENCODING 332
SWIDTH 480 0
DWIDTH 6 0
BBX 6 12 0 -2
BITMAP
3C
3C
00
38
6C
6C
CC
D8
D8
70
00
00
ENDCHAR
STARTCHAR LATIN SMALL LETTER O WITH MACRON
ENCODING 333
SWIDTH 480 0
DWIDTH 6 0
BBX 6 12 0 -2
BITMAP
00
3C
3C
00
00
38
6C
CC
D8
70
00
00
ENDCHAR
STARTCHAR LATIN CAPITAL LETTER O WITH DOUBLE ACUTE
ENCODING 336
SWIDTH 480 0
DWIDTH 6 0
BBX 6 12 0 -2
BITMAP
6C
D8
00
38
6C
6C
CC
D8
D8
70
00
00
ENDCHAR
STARTCHAR LATIN SMALL LETTER O WITH DOUBLE ACUTE
ENCODING 337
SWIDTH 480 0
DWIDTH 6 0
BBX 6 12 0 -2
BITMAP
00
6C
D8
00
00
38
6C
CC
D8
70
00
00
ENDCHAR
STARTCHAR LATIN CAPITAL LIGATURE OE
ENCODING 338
SWIDTH 480 0
DWIDTH 6 0
BBX 6 12 0 -2
BITMAP
00
00
00
7C
D8
D8
BC
B0
B0
7C
00
00
ENDCHAR
STARTCHAR LATIN SMALL LIGATURE OE
ENCODING 339
SWIDTH 480 0
DWIDTH 6 0
BBX 6 12 0 -2
BITMAP
00
00
00
00
00
28
7C
D8
D8
6C
00
00
ENDCHAR
STARTCHAR LATIN CAPITAL LETTER R WITH ACUTE
ENCODING 340
SWIDTH 480 0
DWIDTH 6 0
BBX 6 12 0 -2
BITMAP
0C
18
00
78
6C
6C
D8
F0
D8
CC
00
00
ENDCHAR
STARTCHAR LATIN SMALL LETTER R WITH ACUTE
ENCODING 341
SWIDTH 480 0
DWIDTH 6 0
BBX 6 12 0 -2
BITMAP
00
0C
18
00
00
6C
70
C0
C0
C0
00
00
ENDCHAR
STARTCHAR LATIN CAPITAL LETTER R WITH CEDILLA
ENCODING 342
SWIDTH 480 0
DWIDTH 6 0
BBX 6 12 0 -2
BITMAP
00
00
00
78
6C
6C
D8
F0
D8
CC
30
60
ENDCHAR
STARTCHAR LATIN SMALL LETTER R WITH CEDILLA
ENCODING 343
SWIDTH 480 0
DWIDTH 6 0
BBX 6 12 0 -2
BITMAP
00
00
00
00
00
6C
70
C0
C0
C0
60
C0
ENDCHAR
STARTCHAR LATIN CAPITAL LETTER R WITH CARON
ENCODING 344
SWIDTH 480 0
DWIDTH 6 0
BBX 6 12 0 -2
BITMAP
3C
18
00
78
6C
6C
D8
F0
D8
CC
00
00
ENDCHAR
STARTCHAR LATIN SMALL LETTER R WITH CARON
ENCODING 345
SWIDTH 480 0
DWIDTH 6 0
BBX 6 12 0 -2
BITMAP
00
3C
18
00
00
6C
70
C0
C0
C0
00
00
ENDCHAR
STARTCHAR LATIN CAPITAL LETTER S WITH ACUTE
ENCODING 346
SWIDTH 480 0
DWIDTH 6 0
BBX 6 12 0 -2
BITMAP
0C
18
00
3C
60
60
30
18
18
F0
00
00
ENDCHAR
STARTCHAR LATIN SMALL LETTER S WITH ACUTE
ENCODING 347
SWIDTH 480 0
DWIDTH 6 0
BBX 6 12 0 -2
BITMAP
00
0C
18
00
00
3C
60
30
18
F0
00
00
ENDCHAR
STARTCHAR LATIN CAPITAL LETTER S WITH CIRCUMFLEX
ENCODING 348
SWIDTH 480 0
DWIDTH 6 0
BBX 6 12 0 -2
BITMAP
18
3C
00
3C
60
60
30
18
18
F0
00
00
ENDCHAR
STARTCHAR LATIN SMALL LETTER S WITH CIRCUMFLEX
ENCODING 349
SWIDTH 480 0
DWIDTH 6 0
BBX 6 12 0 -2
BITMAP
00
18
3C
00
00
3C
60
30
18
F0
00
00
ENDCHAR
STARTCHAR LATIN CAPITAL LETTER S WITH CEDILLA
ENCODING 350
SWIDTH 480 0
DWIDTH 6 0
BBX 6 12 0 -2
BITMAP
00
00
00
3C
60
60
30
18
18
F0
60
C0
ENDCHAR
STARTCHAR LATIN SMALL LETTER S WITH CEDILLA
ENCODING 351
SWIDTH 480 0
DWIDTH 6 0
BBX 6 12 0 -2
BITMAP
00
00
00
00
00
3C
60
30
18
F0
60
C0
ENDCHAR
STARTCHAR LATIN CAPITAL LETTER S WITH CARON
ENCODING 352
SWIDTH 480 0
DWIDTH 6 0
BBX 6 12 0 -2
BITMAP
3C
18
00
3C
60
60
30
18
18
F0
00
00
ENDCHAR
STARTCHAR LATIN SMALL LETTER S WITH CARON
ENCODING 353
SWIDTH 480 0
DWIDTH 6 0
BBX 6 12 0 -2
BITMAP
00
3C
18
00
00
3C
60
30
18
F0
00
00
ENDCHAR
STARTCHAR LATIN CAPITAL LETTER T WITH CEDILLA
ENCODING 354
SWIDTH 480 0
DWIDTH 6 0
BBX 6 12 0 -2
BITMAP
00
00
00
FC
30
30
60
60
60
60
60
C0
ENDCHAR
STARTCHAR LATIN SMALL LETTER T WITH CEDILLA
ENCODING 355
SWIDTH 480 0
DWIDTH 6 0
BBX 6 12 0 -2
BITMAP
00
00
18
18
30
78
30
60
60
38
30
60
ENDCHAR
STARTCHAR LATIN CAPITAL LETTER T WITH CARON
ENCODING 356
SWIDTH 480 0
DWIDTH 6 0
BBX 6 12 0 -2
BITMAP
3C
18
00
FC
30
30
60
60
60
60
00
00
ENDCHAR
STARTCHAR LATIN SMALL LETTER T WITH CARON
ENCODING 357
SWIDTH 480 0
DWIDTH 6 0
BBX 6 12 0 -2
BITMAP
00
0C
38
30
60
F0
60
C0
C0
70
00
00
ENDCHAR
STARTCHAR LATIN CAPITAL LETTER T WITH STROKE
ENCODING 358
SWIDTH 480 0
DWIDTH 6 0
BBX 6 12 0 -2
BITMAP
00
00
00
FC
30
30
F8
60
60
60
00
00
ENDCHAR
STARTCHAR LATIN SMALL LETTER T WITH STROKE
ENCODING 359
SWIDTH 480 0
DWIDTH 6 0
BBX 6 12 0 -2
BITMAP
00
00
18
18
7C
30
F8
60
60
38
00
00
ENDCHAR
STARTCHAR LATIN CAPITAL LETTER U WITH TILDE
ENCODING 360
SWIDTH 480 0
DWIDTH 6 0
BBX 6 12 0 -2
BITMAP
6C
D8
00
6C
6C
6C
CC
D8
D8
70
00
00
ENDCHAR
STARTCHAR LATIN SMALL LETTER U WITH TILDE
ENCODING 361
SWIDTH 480 0
DWIDTH 6 0
BBX 6 12 0 -2
BITMAP
00
6C
D8
00
00
6C
6C
CC
D8
78
00
00
ENDCHAR
STARTCHAR LATIN CAPITAL LETTER U WITH MACRON
ENCODING 362
SWIDTH 480 0
DWIDTH 6 0
BBX 6 12 0 -2
BITMAP
3C
3C
00
6C
6C
6C
CC
D8
D8
70
00
00
ENDCHAR
STARTCHAR LATIN SMALL LETTER U WITH MACRON
ENCODING 363
SWIDTH 480 0
DWIDTH 6 0
BBX 6 12 0 -2
BITMAP
00
3C
3C
00
00
6C
6C
CC
C8
78
00
00
ENDCHAR
STARTCHAR LATIN CAPITAL LETTER U WITH BREVE
ENCODING 364
SWIDTH 480 0
DWIDTH 6 0
BBX 6 12 0 -2
BITMAP
6C
38
00
6C
6C
6C
CC
D8
D8
70
00
00
ENDCHAR
STARTCHAR LATIN SMALL LETTER U WITH BREVE
ENCODING 365
SWIDTH 480 0
DWIDTH 6 0
BBX 6 12 0 -2
BITMAP
00
6C
38
00
00
6C
6C
CC
D8
78
00
00
ENDCHAR
STARTCHAR LATIN CAPITAL LETTER U WITH RING ABOVE
ENCODING 366
SWIDTH 480 0
DWIDTH 6 0
BBX 6 12 0 -2
BITMAP
18
3C
18
6C
6C
6C
CC
D8
D8
70
00
00
ENDCHAR
STARTCHAR LATIN SMALL LETTER U WITH RING ABOVE
ENCODING 367
SWIDTH 480 0
DWIDTH 6 0
BBX 6 12 0 -2
BITMAP
18
3C
18
00
00
6C
6C
CC
D8
78
00
00
ENDCHAR
STARTCHAR LATIN CAPITAL LETTER U WITH DOUBLE ACUTE
ENCODING 368
SWIDTH 480 0
DWIDTH 6 0
BBX 6 12 0 -2
BITMAP
6C
D8
00
6C
6C
6C
CC
D8
D8
70
00
00
ENDCHAR
STARTCHAR LATIN SMALL LETTER U WITH DOUBLE ACUTE
ENCODING 369
SWIDTH 480 0
DWIDTH 6 0
BBX 6 12 0 -2
BITMAP
00
6C
D8
00
00
6C
6C
CC
D8
78
00
00
ENDCHAR
STARTCHAR LATIN CAPITAL LETTER U WITH OGONEK
ENCODING 370
SWIDTH 480 0
DWIDTH 6 0
BBX 6 12 0 -2
BITMAP
00
00
00
6C
6C
6C
CC
D8
D8
70
30
18
ENDCHAR
STARTCHAR LATIN SMALL LETTER U WITH OGONEK
ENCODING 371
SWIDTH 480 0
DWIDTH 6 0
BBX 6 12 0 -2
BITMAP
00
00
00
00
00
6C
6C
CC
D8
78
18
0C
ENDCHAR
STARTCHAR LATIN CAPITAL LETTER W WITH CIRCUMFLEX
ENCODING 372
SWIDTH 480 0
DWIDTH 6 0
BBX 6 12 0 -2
BITMAP
18
3C
00
6C
6C
6C
CC
F8
D8
88
00
00
ENDCHAR
STARTCHAR LATIN SMALL LETTER W WITH CIRCUMFLEX
ENCODING 373
SWIDTH 480 0
DWIDTH 6 0
BBX 6 12 0 -2
BITMAP
00
18
3C
00
00
6C
6C
FC
D8
88
00
00
ENDCHAR
STARTCHAR LATIN CAPITAL LETTER Y WITH CIRCUMFLEX
ENCODING 374
SWIDTH 480 0
DWIDTH 6 0
BBX 6 12 0 -2
BITMAP
18
3C
00
CC
CC
F8
70
60
60
60
00
00
ENDCHAR
STARTCHAR LATIN SMALL LETTER Y WITH CIRCUMFLEX
ENCODING 375
SWIDTH 480 0
DWIDTH 6 0
BBX 6 12 0 -2
BITMAP
00
18
3C
00
00
6C
6C
CC
D8
78
18
70
ENDCHAR
STARTCHAR LATIN CAPITAL LETTER Y WITH DIAERESIS
ENCODING 376
SWIDTH 480 0
DWIDTH 6 0
BBX 6 12 0 -2
BITMAP
6C
6C
00
CC
CC
F8
70
60
60
60
00
00
ENDCHAR
STARTCHAR LATIN CAPITAL LETTER Z WITH ACUTE
ENCODING 377
SWIDTH 480 0
DWIDTH 6 0
BBX 6 12 0 -2
BITMAP
0C
18
00
7C
0C
18
30
60
C0
F8
00
00
ENDCHAR
STARTCHAR LATIN SMALL LETTER Z WITH ACUTE
ENCODING 378
SWIDTH 480 0
DWIDTH 6 0
BBX 6 12 0 -2
BITMAP
00
0C
18
00
00
7C
18
30
60
F8
00
00
ENDCHAR
STARTCHAR LATIN CAPITAL LETTER Z WITH DOT ABOVE
ENCODING 379
SWIDTH 480 0
DWIDTH 6 0
BBX 6 12 0 -2
BITMAP
18
18
00
7C
0C
18
30
60
C0
F8
00
00
ENDCHAR
STARTCHAR LATIN SMALL LETTER Z WITH DOT ABOVE
ENCODING 380
SWIDTH 480 0
DWIDTH 6 0
BBX 6 12 0 -2
BITMAP
00
00
18
18
00
7C
18
30
60
F8
00
00
ENDCHAR
STARTCHAR LATIN CAPITAL LETTER Z WITH CARON
ENCODING 381
SWIDTH 480 0
DWIDTH 6 0
BBX 6 12 0 -2
BITMAP
3C
18
00
7C
0C
18
30
60
C0
F8
00
00
ENDCHAR
STARTCHAR LATIN SMALL LETTER Z WITH CARON
ENCODING 382
SWIDTH 480 0
DWIDTH 6 0
BBX 6 12 0 -2
BITMAP
00
3C
18
00
00
7C
18
30
60
F8
00
00
ENDCHAR
STARTCHAR LATIN CAPITAL LETTER S WITH COMMA BELOW
ENCODING 536
SWIDTH 480 0
DWIDTH 6 0
BBX 6 12 0 -2
BITMAP
00
00
00
3C
60
60
30
18
18
F0
60
C0
ENDCHAR
STARTCHAR LATIN SMALL LETTER S WITH COMMA BELOW
ENCODING 537
SWIDTH 480 0
DWIDTH 6 0
BBX 6 12 0 -2
BITMAP
00
00
00
00
00
3C
60
30
18
F0
60
C0
ENDCHAR
STARTCHAR LATIN CAPITAL LETTER T WITH COMMA BELOW
ENCODING 538
SWIDTH 480 0
DWIDTH 6 0
BBX 6 12 0 -2
BITMAP
00
00
00
FC
30
30
60
60
60
60
60
C0
ENDCHAR
STARTCHAR LATIN SMALL LETTER T WITH COMMA BELOW
ENCODING 539
SWIDTH 480 0
DWIDTH 6 0
BBX 6 12 0 -2
BITMAP
00
00
30
30
30
F8
60
60
60
38
30
60
ENDCHAR
STARTCHAR CARON
ENCODING 711
SWIDTH 480 0
DWIDTH 6 0
BBX 6 12 0 -2
BITMAP
D8
70
20
00
00
00
00
00
00
00
00
00
ENDCHAR
STARTCHAR BREVE
ENCODING 728
SWIDTH 480 0
DWIDTH 6 0
BBX 6 12 0 -2
BITMAP
CC
78
00
00
00
00
00
00
00
00
00
00
ENDCHAR
STARTCHAR DOT ABOVE
ENCODING 729
SWIDTH 480 0
DWIDTH 6 0
BBX 6 12 0 -2
BITMAP
30
30
00
00
00
00
00
00
00
00
00
00
ENDCHAR
STARTCHAR OGONEK
ENCODING 731
SWIDTH 480 0
DWIDTH 6 0
BBX 6 12 0 -2
BITMAP
00
00
00
00
00
00
00
00
00
00
18
0C
ENDCHAR
STARTCHAR DOUBLE ACUTE ACCENT
ENCODING 733
SWIDTH 480 0
DWIDTH 6 0
BBX 6 12 0 -2
BITMAP
6C
D8
00
00
00
00
00
00
00
00
00
00
ENDCHAR
STARTCHAR GREEK YPOGEGRAMMENI
ENCODING 890
SWIDTH 480 0
DWIDTH 6 0
BBX 6 12 0 -2
BITMAP
00
00
00
00
00
00
00
00
00
30
30
30
ENDCHAR
STARTCHAR GREEK QUESTION MARK
ENCODING 894
SWIDTH 480 0
DWIDTH 6 0
BBX 6 12 0 -2
BITMAP
00
00
00
00
30
30
00
00
60
60
C0
00
ENDCHAR
STARTCHAR GREEK TONOS
ENCODING 900
SWIDTH 480 0
DWIDTH 6 0
BBX 6 12 0 -2
BITMAP
18
30
00
00
00
00
00
00
00
00
00
00
ENDCHAR
STARTCHAR GREEK DIALYTIKA TONOS
ENCODING 901
SWIDTH 480 0
DWIDTH 6 0
BBX 6 12 0 -2
BITMAP
18
30
CC
CC
00
00
00
00
00
00
00
00
ENDCHAR
STARTCHAR GREEK CAPITAL LETTER ALPHA WITH TONOS
ENCODING 902
SWIDTH 480 0
DWIDTH 6 0
BBX 6 12 0 -2
BITMAP
00
00
60
D8
2C
6C
6C
F8
D8
D8
00
00
ENDCHAR
STARTCHAR GREEK CAPITAL LETTER EPSILON WITH TONOS
ENCODING 904
SWIDTH 480 0
DWIDTH 6 0
BBX 6 12 0 -2
BITMAP
00
00
60
DC
20
60
F0
C0
C0
F8
00
00
ENDCHAR
STARTCHAR GREEK CAPITAL LETTER ETA WITH TONOS
ENCODING 905
SWIDTH 480 0
DWIDTH 6 0
BBX 6 12 0 -2
BITMAP
00
00
60
CC
2C
6C
FC
D8
D8
D8
00
00
ENDCHAR
STARTCHAR GREEK CAPITAL LETTER IOTA WITH TONOS
ENCODING 906
SWIDTH 480 0
DWIDTH 6 0
BBX 6 12 0 -2
BITMAP
00
00
60
DC
18
18
30
30
30
78
00
00
ENDCHAR
STARTCHAR GREEK CAPITAL LETTER OMICRON WITH TONOS
ENCODING 908
SWIDTH 480 0
DWIDTH 6 0
BBX 6 12 0 -2
BITMAP
00
00
60
D8
2C
6C
CC
D8
D8
70
00
00
ENDCHAR
STARTCHAR GREEK CAPITAL LETTER UPSILON WITH TONOS
ENCODING 910
SWIDTH 480 0
DWIDTH 6 0
BBX 6 12 0 -2
BITMAP
00
00
60
CC
0C
F8
70
60
60
60
00
00
ENDCHAR
STARTCHAR GREEK CAPITAL LETTER OMEGA WITH TONOS
ENCODING 911
SWIDTH 480 0
DWIDTH 6 0
BBX 6 12 0 -2
BITMAP
00
00
60
D8
2C
6C
CC
D8
70
D8
00
00
ENDCHAR
STARTCHAR GREEK SMALL LETTER IOTA WITH DIALYTIKA AND TONOS
ENCODING 912
SWIDTH 480 0
DWIDTH 6 0
BBX 6 12 0 -2
BITMAP
0C
18
6C
6C
00
30
30
60
60
30
00
00
ENDCHAR
STARTCHAR GREEK CAPITAL LETTER ALPHA
ENCODING 913
SWIDTH 480 0
DWIDTH 6 0
BBX 6 12 0 -2
BITMAP
00
00
00
38
6C
6C
6C
F8
D8
D8
00
00
ENDCHAR
STARTCHAR GREEK CAPITAL LETTER BETA
ENCODING 914
SWIDTH 480 0
DWIDTH 6 0
BBX 6 12 0 -2
BITMAP
00
00
00
78
6C
6C
F8
D8
D8
F0
00
00
ENDCHAR
STARTCHAR GREEK CAPITAL LETTER GAMMA
ENCODING 915
SWIDTH 480 0
DWIDTH 6 0
BBX 6 12 0 -2
BITMAP
00
00
00
7C
60
60
C0
C0
C0
C0
00
00
ENDCHAR
STARTCHAR GREEK CAPITAL LETTER DELTA
ENCODING 916
SWIDTH 480 0
DWIDTH 6 0
BBX 6 12 0 -2
BITMAP
00
00
00
10
18
38
6C
6C
CC
FC
00
00
ENDCHAR
STARTCHAR GREEK CAPITAL LETTER EPSILON
ENCODING 917
SWIDTH 480 0
DWIDTH 6 0
BBX 6 12 0 -2
BITMAP
00
00
00
7C
60
60
F0
C0
C0
F8
00
00
ENDCHAR
STARTCHAR GREEK CAPITAL LETTER ZETA
ENCODING 918
SWIDTH 480 0
DWIDTH 6 0
BBX 6 12 0 -2
BITMAP
00
00
00
7C
0C
18
30
60
C0
F8
00
00
ENDCHAR
STARTCHAR GREEK CAPITAL LETTER ETA
ENCODING 919
SWIDTH 480 0
DWIDTH 6 0
BBX 6 12 0 -2
BITMAP
00
00
00
6C
6C
6C
FC
D8
D8
D8
00
00
ENDCHAR
STARTCHAR GREEK CAPITAL LETTER THETA
ENCODING 920
SWIDTH 480 0
DWIDTH 6 0
BBX 6 12 0 -2
BITMAP
00
00
00
38
6C
6C
FC
D8
D8
70
00
00
ENDCHAR
STARTCHAR GREEK CAPITAL LETTER IOTA
ENCODING 921
SWIDTH 480 0
DWIDTH 6 0
BBX 6 12 0 -2
BITMAP
00
00
00
78
30
30
60
60
60
F0
00
00
ENDCHAR
STARTCHAR GREEK CAPITAL LETTER KAPPA
ENCODING 922
SWIDTH 480 0
DWIDTH 6 0
BBX 6 12 0 -2
BITMAP
00
00
00
6C
78
70
E0
F0
D8
CC
00
00
ENDCHAR
STARTCHAR GREEK CAPITAL LETTER LAMDA
ENCODING 923
SWIDTH 480 0
DWIDTH 6 0
BBX 6 12 0 -2
BITMAP
00
00
00
10
18
38
6C
6C
CC
CC
00
00
ENDCHAR
STARTCHAR GREEK CAPITAL LETTER MU
ENCODING 924
SWIDTH 480 0
DWIDTH 6 0
BBX 6 12 0 -2
BITMAP
00
00
00
6C
6C
7C
CC
D8
D8
D8
00
00
ENDCHAR
STARTCHAR GREEK CAPITAL LETTER NU
ENCODING 925
SWIDTH 480 0
DWIDTH 6 0
BBX 6 12 0 -2
BITMAP
00
00
00
6C
6C
6C
DC
D8
D8
D8
00
00
ENDCHAR
STARTCHAR GREEK CAPITAL LETTER XI
ENCODING 926
SWIDTH 480 0
DWIDTH 6 0
BBX 6 12 0 -2
BITMAP
00
00
00
7C
7C
00
78
00
F8
F8
00
00
ENDCHAR
STARTCHAR GREEK CAPITAL LETTER OMICRON
ENCODING 927
SWIDTH 480 0
DWIDTH 6 0
BBX 6 12 0 -2
BITMAP
00
00
00
38
6C
6C
CC
D8
D8
70
00
00
ENDCHAR
STARTCHAR GREEK CAPITAL LETTER PI
ENCODING 928
SWIDTH 480 0
DWIDTH 6 0
BBX 6 12 0 -2
BITMAP
00
00
00
7C
6C
6C
CC
D8
D8
D8
00
00
ENDCHAR
STARTCHAR GREEK CAPITAL LETTER RHO
ENCODING 929
SWIDTH 480 0
DWIDTH 6 0
BBX 6 12 0 -2
BITMAP
00
00
00
78
6C
4C
D8
F0
C0
C0
00
00
ENDCHAR
STARTCHAR GREEK CAPITAL LETTER SIGMA
ENCODING 931
SWIDTH 480 0
DWIDTH 6 0
BBX 6 12 0 -2
BITMAP
00
00
00
7C
60
30
30
60
C0
F8
00
00
ENDCHAR
STARTCHAR GREEK CAPITAL LETTER TAU
ENCODING 932
SWIDTH 480 0
DWIDTH 6 0
BBX 6 12 0 -2
BITMAP
00
00
00
FC
30
30
60
60
60
60
00
00
ENDCHAR
STARTCHAR GREEK CAPITAL LETTER UPSILON
ENCODING 933
SWIDTH 480 0
DWIDTH 6 0
BBX 6 12 0 -2
BITMAP
00
00
00
CC
CC
F8
70
60
60
60
00
00
ENDCHAR
STARTCHAR GREEK CAPITAL LETTER PHI
ENCODING 934
SWIDTH 480 0
DWIDTH 6 0
BBX 6 12 0 -2
BITMAP
00
00
00
10
38
7C
F4
B8
70
20
00
00
ENDCHAR
STARTCHAR GREEK CAPITAL LETTER CHI
ENCODING 935
SWIDTH 480 0
DWIDTH 6 0
BBX 6 12 0 -2
BITMAP
00
00
00
6C
6C
38
30
70
D8
D8
00
00
ENDCHAR
STARTCHAR GREEK CAPITAL LETTER PSI
ENCODING 936
SWIDTH 480 0
DWIDTH 6 0
BBX 6 12 0 -2
BITMAP
00
00
00
D4
DC
D8
70
60
60
60
00
00
ENDCHAR
STARTCHAR GREEK CAPITAL LETTER OMEGA
ENCODING 937
SWIDTH 480 0
DWIDTH 6 0
BBX 6 12 0 -2
BITMAP
00
00
00
38
6C
6C
CC
D8
70
D8
00
00
ENDCHAR
STARTCHAR GREEK CAPITAL LETTER IOTA WITH DIALYTIKA
ENCODING 938
SWIDTH 480 0
DWIDTH 6 0
BBX 6 12 0 -2
BITMAP
6C
6C
00
78
30
30
60
60
60
F0
00
00
ENDCHAR
STARTCHAR GREEK CAPITAL LETTER UPSILON WITH DIALYTIKA
ENCODING 939
SWIDTH 480 0
DWIDTH 6 0
BBX 6 12 0 -2
BITMAP
6C
6C
00
CC
CC
F8
70
60
60
60
00
00
ENDCHAR
STARTCHAR GREEK SMALL LETTER ALPHA WITH TONOS
ENCODING 940
SWIDTH 480 0
DWIDTH 6 0
BBX 6 12 0 -2
BITMAP
00
0C
18
00
00
3C
6C
C8
D8
6C
00
00
ENDCHAR
STARTCHAR GREEK SMALL LETTER EPSILON WITH TONOS
ENCODING 941
SWIDTH 480 0
DWIDTH 6 0
BBX 6 12 0 -2
BITMAP
00
0C
18
00
00
3C
60
70
C0
78
00
00
ENDCHAR
STARTCHAR GREEK SMALL LETTER ETA WITH TONOS
ENCODING 942
SWIDTH 480 0
DWIDTH 6 0
BBX 6 12 0 -2
BITMAP
00
0C
18
00
00
78
6C
CC
D8
D8
18
30
ENDCHAR
STARTCHAR GREEK SMALL LETTER IOTA WITH TONOS
ENCODING 943
SWIDTH 480 0
DWIDTH 6 0
BBX 6 12 0 -2
BITMAP
00
0C
18
00
00
30
30
60
60
30
00
00
ENDCHAR
STARTCHAR GREEK SMALL LETTER UPSILON WITH DIALYTIKA AND TONOS
ENCODING 944
SWIDTH 480 0
DWIDTH 6 0
BBX 6 12 0 -2
BITMAP
0C
18
6C
6C
00
6C
6C
CC
D8
70
00
00
ENDCHAR
STARTCHAR GREEK SMALL LETTER ALPHA
ENCODING 945
SWIDTH 480 0
DWIDTH 6 0
BBX 6 12 0 -2
BITMAP
00
00
00
00
00
3C
6C
C8
D8
6C
00
00
ENDCHAR
STARTCHAR GREEK SMALL LETTER BETA
ENCODING 946
SWIDTH 480 0
DWIDTH 6 0
BBX 6 12 0 -2
BITMAP
00
00
38
6C
6C
68
6C
CC
CC
D8
C0
C0
ENDCHAR
STARTCHAR GREEK SMALL LETTER GAMMA
ENCODING 947
SWIDTH 480 0
DWIDTH 6 0
BBX 6 12 0 -2
BITMAP
00
00
00
00
00
CC
CC
78
70
60
60
60
ENDCHAR
STARTCHAR GREEK SMALL LETTER DELTA
ENCODING 948
SWIDTH 480 0
DWIDTH 6 0
BBX 6 12 0 -2
BITMAP
00
00
1C
30
10
38
6C
CC
D8
70
00
00
ENDCHAR
STARTCHAR GREEK SMALL LETTER EPSILON
ENCODING 949
SWIDTH 480 0
DWIDTH 6 0
BBX 6 12 0 -2
BITMAP
00
00
00
00
00
3C
60
70
C0
78
00
00
ENDCHAR
STARTCHAR GREEK SMALL LETTER ZETA
ENCODING 950
SWIDTH 480 0
DWIDTH 6 0
BBX 6 12 0 -2
BITMAP
00
00
7C
0C
18
30
60
C0
C0
70
18
00
ENDCHAR
STARTCHAR GREEK SMALL LETTER ETA
ENCODING 951
SWIDTH 480 0
DWIDTH 6 0
BBX 6 12 0 -2
BITMAP
00
00
00
00
00
78
4C
CC
D8
D8
18
30
ENDCHAR
STARTCHAR GREEK SMALL LETTER THETA
ENCODING 952
SWIDTH 480 0
DWIDTH 6 0
BBX 6 12 0 -2
BITMAP
00
00
38
6C
6C
7C
D8
D8
D8
70
00
00
ENDCHAR
STARTCHAR GREEK SMALL LETTER IOTA
ENCODING 953
SWIDTH 480 0
DWIDTH 6 0
BBX 6 12 0 -2
BITMAP
00
00
00
00
00
30
30
60
60
30
00
00
ENDCHAR
STARTCHAR GREEK SMALL LETTER KAPPA
ENCODING 954
SWIDTH 480 0
DWIDTH 6 0
BBX 6 12 0 -2
BITMAP
00
00
00
00
00
6C
78
F0
D8
CC
00
00
ENDCHAR
STARTCHAR GREEK SMALL LETTER LAMDA
ENCODING 955
SWIDTH 480 0
DWIDTH 6 0
BBX 6 12 0 -2
BITMAP
00
00
60
30
18
18
18
3C
6C
CC
00
00
ENDCHAR
STARTCHAR GREEK SMALL LETTER MU
ENCODING 956
SWIDTH 480 0
DWIDTH 6 0
BBX 6 12 0 -2
BITMAP
00
00
00
00
00
6C
6C
6C
D8
F0
C0
C0
ENDCHAR
STARTCHAR GREEK SMALL LETTER NU
ENCODING 957
SWIDTH 480 0
DWIDTH 6 0
BBX 6 12 0 -2
BITMAP
00
00
00
00
00
6C
CC
CC
D8
70
00
00
ENDCHAR
STARTCHAR GREEK SMALL LETTER XI
ENCODING 958
SWIDTH 480 0
DWIDTH 6 0
BBX 6 12 0 -2
BITMAP
00
00
3C
18
30
38
60
C0
C0
70
18
00
ENDCHAR
STARTCHAR GREEK SMALL LETTER OMICRON
ENCODING 959
SWIDTH 480 0
DWIDTH 6 0
BBX 6 12 0 -2
BITMAP
00
00
00
00
00
38
6C
CC
D8
70
00
00
ENDCHAR
STARTCHAR GREEK SMALL LETTER PI
ENCODING 960
SWIDTH 480 0
DWIDTH 6 0
BBX 6 12 0 -2
BITMAP
00
00
00
00
00
7C
6C
6C
78
CC
00
00
ENDCHAR
STARTCHAR GREEK SMALL LETTER RHO
ENCODING 961
SWIDTH 480 0
DWIDTH 6 0
BBX 6 12 0 -2
BITMAP
00
00
00
00
00
38
6C
6C
D8
F0
C0
C0
ENDCHAR
STARTCHAR GREEK SMALL LETTER FINAL SIGMA
ENCODING 962
SWIDTH 480 0
DWIDTH 6 0
BBX 6 12 0 -2
BITMAP
00
00
00
00
00
3C
60
C0
C0
70
18
00
ENDCHAR
STARTCHAR GREEK SMALL LETTER SIGMA
ENCODING 963
SWIDTH 480 0
DWIDTH 6 0
BBX 6 12 0 -2
BITMAP
00
00
00
00
00
3C
68
CC
D8
70
00
00
ENDCHAR
STARTCHAR GREEK SMALL LETTER TAU
ENCODING 964
SWIDTH 480 0
DWIDTH 6 0
BBX 6 12 0 -2
BITMAP
00
00
00
00
00
FC
30
60
60
30
00
00
ENDCHAR
STARTCHAR GREEK SMALL LETTER UPSILON
ENCODING 965
SWIDTH 480 0
DWIDTH 6 0
BBX 6 12 0 -2
BITMAP
00
00
00
00
00
6C
6C
CC
D8
70
00
00
ENDCHAR
STARTCHAR GREEK SMALL LETTER PHI
ENCODING 966
SWIDTH 480 0
DWIDTH 6 0
BBX 6 12 0 -2
BITMAP
00
00
00
00
00
08
5C
FC
F8
70
60
60
ENDCHAR
STARTCHAR GREEK SMALL LETTER CHI
ENCODING 967
SWIDTH 480 0
DWIDTH 6 0
BBX 6 12 0 -2
BITMAP
00
00
00
00
00
64
3C
38
30
70
F0
98
ENDCHAR
STARTCHAR GREEK SMALL LETTER PSI
ENCODING 968
SWIDTH 480 0
DWIDTH 6 0
BBX 6 12 0 -2
BITMAP
00
00
00
18
18
7C
7C
DC
F8
70
60
60
ENDCHAR
STARTCHAR GREEK SMALL LETTER OMEGA
ENCODING 969
SWIDTH 480 0
DWIDTH 6 0
BBX 6 12 0 -2
BITMAP
00
00
00
00
00
28
6C
CC
F8
50
00
00
ENDCHAR
STARTCHAR GREEK SMALL LETTER IOTA WITH DIALYTIKA
ENCODING 970
SWIDTH 480 0
DWIDTH 6 0
BBX 6 12 0 -2
BITMAP
00
6C
6C
00
00
30
30
60
60
30
00
00
ENDCHAR
STARTCHAR GREEK SMALL LETTER UPSILON WITH DIALYTIKA
ENCODING 971
SWIDTH 480 0
DWIDTH 6 0
BBX 6 12 0 -2
BITMAP
00
6C
6C
00
00
6C
6C
CC
D8
70
00
00
ENDCHAR
STARTCHAR GREEK SMALL LETTER OMICRON WITH TONOS
ENCODING 972
SWIDTH 480 0
DWIDTH 6 0
BBX 6 12 0 -2
BITMAP
00
0C
18
00
00
38
6C
CC
D8
70
00
00
ENDCHAR
STARTCHAR GREEK SMALL LETTER UPSILON WITH TONOS
ENCODING 973
SWIDTH 480 0
DWIDTH 6 0
BBX 6 12 0 -2
BITMAP
00
0C
18
00
00
6C
6C
CC
D8
70
00
00
ENDCHAR
STARTCHAR GREEK SMALL LETTER OMEGA WITH TONOS
ENCODING 974
SWIDTH 480 0
DWIDTH 6 0
BBX 6 12 0 -2
BITMAP
00
0C
18
00
00
28
6C
CC
F8
50
00
00
ENDCHAR
STARTCHAR CYRILLIC CAPITAL LETTER IO
ENCODING 1025
SWIDTH 480 0
DWIDTH 6 0
BBX 6 12 0 -2
BITMAP
6C
6C
00
7C
60
60
F0
C0
C0
F8
00
00
ENDCHAR
STARTCHAR CYRILLIC CAPITAL LETTER DJE
ENCODING 1026
SWIDTH 480 0
DWIDTH 6 0
BBX 6 12 0 -2
BITMAP
00
00
00
F0
60
60
F8
CC
CC
D8
30
00
ENDCHAR
STARTCHAR CYRILLIC CAPITAL LETTER GJE
ENCODING 1027
SWIDTH 480 0
DWIDTH 6 0
BBX 6 12 0 -2
BITMAP
0C
18
00
7C
60
60
C0
C0
C0
C0
00
00
ENDCHAR
STARTCHAR CYRILLIC CAPITAL LETTER UKRAINIAN IE
ENCODING 1028
SWIDTH 480 0
DWIDTH 6 0
BBX 6 12 0 -2
BITMAP
00
00
00
3C
60
60
F0
C0
C0
78
00
00
ENDCHAR
STARTCHAR CYRILLIC CAPITAL LETTER DZE
ENCODING 1029
SWIDTH 480 0
DWIDTH 6 0
BBX 6 12 0 -2
BITMAP
00
00
00
3C
60
60
30
18
18
F0
00
00
ENDCHAR
STARTCHAR CYRILLIC CAPITAL LETTER BYELORUSSIAN-UKRAINIAN I
ENCODING 1030
SWIDTH 480 0
DWIDTH 6 0
BBX 6 12 0 -2
BITMAP
00
00
00
78
30
30
60
60
60
F0
00
00
ENDCHAR
STARTCHAR CYRILLIC CAPITAL LETTER YI
ENCODING 1031
SWIDTH 480 0
DWIDTH 6 0
BBX 6 12 0 -2
BITMAP
6C
6C
00
78
30
30
60
60
60
F0
00
00
ENDCHAR
STARTCHAR CYRILLIC CAPITAL LETTER JE
ENCODING 1032
SWIDTH 480 0
DWIDTH 6 0
BBX 6 12 0 -2
BITMAP
00
00
00
0C
0C
0C
18
18
D8
70
00
00
ENDCHAR
STARTCHAR CYRILLIC CAPITAL LETTER LJE
ENCODING 1033
SWIDTH 480 0
DWIDTH 6 0
BBX 6 12 0 -2
BITMAP
00
00
00
3C
6C
6C
D8
DC
D4
D8
00
00
ENDCHAR
STARTCHAR CYRILLIC CAPITAL LETTER NJE
ENCODING 1034
SWIDTH 480 0
DWIDTH 6 0
BBX 6 12 0 -2
BITMAP
00
00
00
6C
6C
6C
F8
DC
D4
D8
00
00
ENDCHAR
STARTCHAR CYRILLIC CAPITAL LETTER TSHE
ENCODING 1035
SWIDTH 480 0
DWIDTH 6 0
BBX 6 12 0 -2
BITMAP
00
00
00
F0
60
60
F8
CC
CC
D8
00
00
ENDCHAR
STARTCHAR CYRILLIC CAPITAL LETTER KJE
ENCODING 1036
SWIDTH 480 0
DWIDTH 6 0
BBX 6 12 0 -2
BITMAP
0C
18
00
6C
78
70
E0
F0
D8
CC
00
00
ENDCHAR
STARTCHAR CYRILLIC CAPITAL LETTER SHORT U
ENCODING 1038
SWIDTH 480 0
DWIDTH 6 0
BBX 6 12 0 -2
BITMAP
3C
18
00
6C
6C
6C
38
18
18
70
00
00
ENDCHAR
STARTCHAR CYRILLIC CAPITAL LETTER DZHE
ENCODING 1039
SWIDTH 480 0
DWIDTH 6 0
BBX 6 12 0 -2
BITMAP
00
00
00
6C
6C
6C
CC
D8
D8
F8
20
00
ENDCHAR
STARTCHAR CYRILLIC CAPITAL LETTER A
ENCODING 1040
SWIDTH 480 0
DWIDTH 6 0
BBX 6 12 0 -2
BITMAP
00
00
00
38
6C
6C
6C
F8
D8
D8
00
00
ENDCHAR
STARTCHAR CYRILLIC CAPITAL LETTER BE
ENCODING 1041
SWIDTH 480 0
DWIDTH 6 0
BBX 6 12 0 -2
BITMAP
00
00
00
78
60
60
F0
D8
D8
F0
00
00
ENDCHAR
STARTCHAR CYRILLIC CAPITAL LETTER VE
ENCODING 1042
SWIDTH 480 0
DWIDTH 6 0
BBX 6 12 0 -2
BITMAP
00
00
00
78
6C
6C
F8
D8
D8
F0
00
00
ENDCHAR
STARTCHAR CYRILLIC CAPITAL LETTER GHE
ENCODING 1043
SWIDTH 480 0
DWIDTH 6 0
BBX 6 12 0 -2
BITMAP
00
00
00
7C
60
60
C0
C0
C0
C0
00
00
ENDCHAR
STARTCHAR CYRILLIC CAPITAL LETTER DE
ENCODING 1044
SWIDTH 480 0
DWIDTH 6 0
BBX 6 12 0 -2
BITMAP
00
00
00
1C
2C
6C
4C
D8
D8
FC
CC
00
ENDCHAR
STARTCHAR CYRILLIC CAPITAL LETTER IE
ENCODING 1045
SWIDTH 480 0
DWIDTH 6 0
BBX 6 12 0 -2
BITMAP
00
00
00
7C
60
60
F0
C0
C0
F8
00
00
ENDCHAR
STARTCHAR CYRILLIC CAPITAL LETTER ZHE
ENCODING 1046
SWIDTH 480 0
DWIDTH 6 0
BBX 6 12 0 -2
BITMAP
00
00
00
54
7C
7C
78
F8
F8
A8
00
00
ENDCHAR
STARTCHAR CYRILLIC CAPITAL LETTER ZE
ENCODING 1047
SWIDTH 480 0
DWIDTH 6 0
BBX 6 12 0 -2
BITMAP
00
00
00
78
0C
0C
38
18
18
F0
00
00
ENDCHAR
STARTCHAR CYRILLIC CAPITAL LETTER I
ENCODING 1048
SWIDTH 480 0
DWIDTH 6 0
BBX 6 12 0 -2
BITMAP
00
00
00
6C
6C
6C
DC
F8
D8
98
00
00
ENDCHAR
STARTCHAR CYRILLIC CAPITAL LETTER SHORT I
ENCODING 1049
SWIDTH 480 0
DWIDTH 6 0
BBX 6 12 0 -2
BITMAP
3C
18
00
6C
6C
6C
DC
F8
D8
98
00
00
ENDCHAR
STARTCHAR CYRILLIC CAPITAL LETTER KA
ENCODING 1050
SWIDTH 480 0
DWIDTH 6 0
BBX 6 12 0 -2
BITMAP
00
00
00
6C
78
70
E0
F0
D8
CC
00
00
ENDCHAR
STARTCHAR CYRILLIC CAPITAL LETTER EL
ENCODING 1051
SWIDTH 480 0
DWIDTH 6 0
BBX 6 12 0 -2
BITMAP
00
00
00
1C
3C
6C
6C
D8
D8
D8
00
00
ENDCHAR
STARTCHAR CYRILLIC CAPITAL LETTER EM
ENCODING 1052
SWIDTH 480 0
DWIDTH 6 0
BBX 6 12 0 -2
BITMAP
00
00
00
6C
6C
7C
CC
D8
D8
D8
00
00
ENDCHAR
STARTCHAR CYRILLIC CAPITAL LETTER EN
ENCODING 1053
SWIDTH 480 0
DWIDTH 6 0
BBX 6 12 0 -2
BITMAP
00
00
00
6C
6C
6C
FC
D8
D8
D8
00
00
ENDCHAR
STARTCHAR CYRILLIC CAPITAL LETTER O
ENCODING 1054
SWIDTH 480 0
DWIDTH 6 0
BBX 6 12 0 -2
BITMAP
00
00
00
38
6C
6C
CC
D8
D8
70
00
00
ENDCHAR
STARTCHAR CYRILLIC CAPITAL LETTER PE
ENCODING 1055
SWIDTH 480 0
DWIDTH 6 0
BBX 6 12 0 -2
BITMAP
00
00
00
7C
6C
6C
CC
D8
D8
D8
00
00
ENDCHAR
STARTCHAR CYRILLIC CAPITAL LETTER ER
ENCODING 1056
SWIDTH 480 0
DWIDTH 6 0
BBX 6 12 0 -2
BITMAP
00
00
00
78
6C
4C
D8
F0
C0
C0
00
00
ENDCHAR
STARTCHAR CYRILLIC CAPITAL LETTER ES
ENCODING 1057
SWIDTH 480 0
DWIDTH 6 0
BBX 6 12 0 -2
BITMAP
00
00
00
3C
60
60
C0
C0
C0
78
00
00
ENDCHAR
STARTCHAR CYRILLIC CAPITAL LETTER TE
ENCODING 1058
SWIDTH 480 0
DWIDTH 6 0
BBX 6 12 0 -2
BITMAP
00
00
00
FC
30
30
60
60
60
60
00
00
ENDCHAR
STARTCHAR CYRILLIC CAPITAL LETTER U
ENCODING 1059
SWIDTH 480 0
DWIDTH 6 0
BBX 6 12 0 -2
BITMAP
00
00
00
6C
6C
6C
38
18
18
70
00
00
ENDCHAR
STARTCHAR CYRILLIC CAPITAL LETTER EF
ENCODING 1060
SWIDTH 480 0
DWIDTH 6 0
BBX 6 12 0 -2
BITMAP
00
00
00
10
38
7C
F4
B8
70
20
00
00
ENDCHAR
STARTCHAR CYRILLIC CAPITAL LETTER HA
ENCODING 1061
SWIDTH 480 0
DWIDTH 6 0
BBX 6 12 0 -2
BITMAP
00
00
00
6C
6C
38
30
70
D8
D8
00
00
ENDCHAR
STARTCHAR CYRILLIC CAPITAL LETTER TSE
ENCODING 1062
SWIDTH 480 0
DWIDTH 6 0
BBX 6 12 0 -2
BITMAP
00
00
00
6C
6C
6C
CC
D8
D8
FC
0C
00
ENDCHAR
STARTCHAR CYRILLIC CAPITAL LETTER CHE
ENCODING 1063
SWIDTH 480 0
DWIDTH 6 0
BBX 6 12 0 -2
BITMAP
00
00
00
6C
6C
6C
38
18
18
18
00
00
ENDCHAR
STARTCHAR CYRILLIC CAPITAL LETTER SHA
ENCODING 1064
SWIDTH 480 0
DWIDTH 6 0
BBX 6 12 0 -2
BITMAP
00
00
00
54
54
54
FC
F8
F8
F8
00
00
ENDCHAR
STARTCHAR CYRILLIC CAPITAL LETTER SHCHA
ENCODING 1065
SWIDTH 480 0
DWIDTH 6 0
BBX 6 12 0 -2
BITMAP
00
00
00
54
54
54
FC
F8
F8
FC
0C
00
ENDCHAR
STARTCHAR CYRILLIC CAPITAL LETTER HARD SIGN
ENCODING 1066
SWIDTH 480 0
DWIDTH 6 0
BBX 6 12 0 -2
BITMAP
00
00
00
E0
60
60
F0
D8
D8
F0
00
00
ENDCHAR
STARTCHAR CYRILLIC CAPITAL LETTER YERU
ENCODING 1067
SWIDTH 480 0
DWIDTH 6 0
BBX 6 12 0 -2
BITMAP
00
00
00
6C
6C
6C
EC
D8
D8
F8
00
00
ENDCHAR
STARTCHAR CYRILLIC CAPITAL LETTER SOFT SIGN
ENCODING 1068
SWIDTH 480 0
DWIDTH 6 0
BBX 6 12 0 -2
BITMAP
00
00
00
60
60
60
F0
D8
D8
F0
00
00
ENDCHAR
STARTCHAR CYRILLIC CAPITAL LETTER E
ENCODING 1069
SWIDTH 480 0
DWIDTH 6 0
BBX 6 12 0 -2
BITMAP
00
00
00
78
0C
0C
7C
18
18
F0
00
00
ENDCHAR
STARTCHAR CYRILLIC CAPITAL LETTER YU
ENCODING 1070
SWIDTH 480 0
DWIDTH 6 0
BBX 6 12 0 -2
BITMAP
00
00
00
58
F4
F4
E4
EC
EC
98
00
00
ENDCHAR
STARTCHAR CYRILLIC CAPITAL LETTER YA
ENCODING 1071
SWIDTH 480 0
DWIDTH 6 0
BBX 6 12 0 -2
BITMAP
00
00
00
3C
6C
6C
6C
38
78
D8
00
00
ENDCHAR
STARTCHAR CYRILLIC SMALL LETTER A
ENCODING 1072
SWIDTH 480 0
DWIDTH 6 0
BBX 6 12 0 -2
BITMAP
00
00
00
00
00
3C
6C
CC
D8
78
00
00
ENDCHAR
STARTCHAR CYRILLIC SMALL LETTER BE
ENCODING 1073
SWIDTH 480 0
DWIDTH 6 0
BBX 6 12 0 -2
BITMAP
00
04
18
30
30
78
6C
CC
D8
70
00
00
ENDCHAR
STARTCHAR CYRILLIC SMALL LETTER VE
ENCODING 1074
SWIDTH 480 0
DWIDTH 6 0
BBX 6 12 0 -2
BITMAP
00
00
00
00
00
38
6C
F8
D8
70
00
00
ENDCHAR
STARTCHAR CYRILLIC SMALL LETTER GHE
ENCODING 1075
SWIDTH 480 0
DWIDTH 6 0
BBX 6 12 0 -2
BITMAP
00
00
00
00
00
78
0C
78
C0
78
00
00
ENDCHAR
STARTCHAR CYRILLIC SMALL LETTER DE
ENCODING 1076
SWIDTH 480 0
DWIDTH 6 0
BBX 6 12 0 -2
BITMAP
00
00
38
0C
0C
3C
6C
CC
D8
70
00
00
ENDCHAR
STARTCHAR CYRILLIC SMALL LETTER IE
ENCODING 1077
SWIDTH 480 0
DWIDTH 6 0
BBX 6 12 0 -2
BITMAP
00
00
00
00
00
38
6C
F8
C0
70
00
00
ENDCHAR
STARTCHAR CYRILLIC SMALL LETTER ZHE
ENCODING 1078
SWIDTH 480 0
DWIDTH 6 0
BBX 6 12 0 -2
BITMAP
00
00
00
00
00
54
7C
78
F8
A8
00
00
ENDCHAR
STARTCHAR CYRILLIC SMALL LETTER ZE
ENCODING 1079
SWIDTH 480 0
DWIDTH 6 0
BBX 6 12 0 -2
BITMAP
00
00
00
00
00
78
0C
38
18
F0
00
00
ENDCHAR
STARTCHAR CYRILLIC SMALL LETTER I
ENCODING 1080
SWIDTH 480 0
DWIDTH 6 0
BBX 6 12 0 -2
BITMAP
00
00
00
00
00
6C
6C
CC
D8
78
00
00
ENDCHAR
STARTCHAR CYRILLIC SMALL LETTER SHORT I
ENCODING 1081
SWIDTH 480 0
DWIDTH 6 0
BBX 6 12 0 -2
BITMAP
00
3C
18
00
00
6C
6C
CC
D8
78
00
00
ENDCHAR
STARTCHAR CYRILLIC SMALL LETTER KA
ENCODING 1082
SWIDTH 480 0
DWIDTH 6 0
BBX 6 12 0 -2
BITMAP
00
00
00
00
00
6C
78
F0
D8
CC
00
00
ENDCHAR
STARTCHAR CYRILLIC SMALL LETTER EL
ENCODING 1083
SWIDTH 480 0
DWIDTH 6 0
BBX 6 12 0 -2
BITMAP
00
00
00
00
00
3C
6C
6C
D8
D8
00
00
ENDCHAR
STARTCHAR CYRILLIC SMALL LETTER EM
ENCODING 1084
SWIDTH 480 0
DWIDTH 6 0
BBX 6 12 0 -2
BITMAP
00
00
00
00
00
44
6C
FC
D8
D8
00
00
ENDCHAR
STARTCHAR CYRILLIC SMALL LETTER EN
ENCODING 1085
SWIDTH 480 0
DWIDTH 6 0
BBX 6 12 0 -2
BITMAP
00
00
00
00
00
6C
6C
FC
D8
D8
00
00
ENDCHAR
STARTCHAR CYRILLIC SMALL LETTER O
ENCODING 1086
SWIDTH 480 0
DWIDTH 6 0
BBX 6 12 0 -2
BITMAP
00
00
00
00
00
38
6C
CC
D8
70
00
00
ENDCHAR
STARTCHAR CYRILLIC SMALL LETTER PE
ENCODING 1087
SWIDTH 480 0
DWIDTH 6 0
BBX 6 12 0 -2
BITMAP
00
00
00
00
00
78
6C
CC
D8
D8
00
00
ENDCHAR
STARTCHAR CYRILLIC SMALL LETTER ER
ENCODING 1088
SWIDTH 480 0
DWIDTH 6 0
BBX 6 12 0 -2
BITMAP
00
00
00
00
00
78
6C
6C
58
F0
C0
C0
ENDCHAR
STARTCHAR CYRILLIC SMALL LETTER ES
ENCODING 1089
SWIDTH 480 0
DWIDTH 6 0
BBX 6 12 0 -2
BITMAP
00
00
00
00
00
3C
60
C0
C0
78
00
00
ENDCHAR
STARTCHAR CYRILLIC SMALL LETTER TE
ENCODING 1090
SWIDTH 480 0
DWIDTH 6 0
BBX 6 12 0 -2
BITMAP
00
00
00
00
00
68
7C
FC
F8
D8
00
00
ENDCHAR
STARTCHAR CYRILLIC SMALL LETTER U
ENCODING 1091
SWIDTH 480 0
DWIDTH 6 0
BBX 6 12 0 -2
BITMAP
00
00
00
00
00
6C
6C
CC
D8
78
18
70
ENDCHAR
STARTCHAR CYRILLIC SMALL LETTER EF
ENCODING 1092
SWIDTH 480 0
DWIDTH 6 0
BBX 6 12 0 -2
BITMAP
00
00
00
18
18
7C
7C
DC
F8
70
60
60
ENDCHAR
STARTCHAR CYRILLIC SMALL LETTER HA
ENCODING 1093
SWIDTH 480 0
DWIDTH 6 0
BBX 6 12 0 -2
BITMAP
00
00
00
00
00
6C
38
30
70
D8
00
00
ENDCHAR
STARTCHAR CYRILLIC SMALL LETTER TSE
ENCODING 1094
SWIDTH 480 0
DWIDTH 6 0
BBX 6 12 0 -2
BITMAP
00
00
00
00
00
6C
6C
CC
D8
7C
0C
00
ENDCHAR
STARTCHAR CYRILLIC SMALL LETTER CHE
ENCODING 1095
SWIDTH 480 0
DWIDTH 6 0
BBX 6 12 0 -2
BITMAP
00
00
00
00
00
6C
6C
3C
18
18
00
00
ENDCHAR
STARTCHAR CYRILLIC SMALL LETTER SHA
ENCODING 1096
SWIDTH 480 0
DWIDTH 6 0
BBX 6 12 0 -2
BITMAP
00
00
00
00
00
54
54
FC
F8
78
00
00
ENDCHAR
STARTCHAR CYRILLIC SMALL LETTER SHCHA
ENCODING 1097
SWIDTH 480 0
DWIDTH 6 0
BBX 6 12 0 -2
BITMAP
00
00
00
00
00
54
54
FC
F8
7C
0C
00
ENDCHAR
STARTCHAR CYRILLIC SMALL LETTER HARD SIGN
ENCODING 1098
SWIDTH 480 0
DWIDTH 6 0
BBX 6 12 0 -2
BITMAP
00
00
00
00
00
E0
60
70
D8
70
00
00
ENDCHAR
STARTCHAR CYRILLIC SMALL LETTER YERU
ENCODING 1099
SWIDTH 480 0
DWIDTH 6 0
BBX 6 12 0 -2
BITMAP
00
00
00
00
00
6C
6C
7C
D8
78
00
00
ENDCHAR
STARTCHAR CYRILLIC SMALL LETTER SOFT SIGN
ENCODING 1100
SWIDTH 480 0
DWIDTH 6 0
BBX 6 12 0 -2
BITMAP
00
00
00
00
00
60
60
70
D8
70
00
00
ENDCHAR
STARTCHAR CYRILLIC SMALL LETTER E
ENCODING 1101
SWIDTH 480 0
DWIDTH 6 0
BBX 6 12 0 -2
BITMAP
00
00
00
00
00
78
0C
7C
18
F0
00
00
ENDCHAR
STARTCHAR CYRILLIC SMALL LETTER YU
ENCODING 1102
SWIDTH 480 0
DWIDTH 6 0
BBX 6 12 0 -2
BITMAP
00
00
00
00
00
58
7C
E4
EC
B8
00
00
ENDCHAR
STARTCHAR CYRILLIC SMALL LETTER YA
ENCODING 1103
SWIDTH 480 0
DWIDTH 6 0
BBX 6 12 0 -2
BITMAP
00
00
00
00
00
3C
6C
3C
78
D8
00
00
ENDCHAR
STARTCHAR CYRILLIC SMALL LETTER IO
ENCODING 1105
SWIDTH 480 0
DWIDTH 6 0
BBX 6 12 0 -2
BITMAP
00
6C
6C
00
00
38
6C
F8
C0
70
00
00
ENDCHAR
STARTCHAR CYRILLIC SMALL LETTER DJE
ENCODING 1106
SWIDTH 480 0
DWIDTH 6 0
BBX 6 12 0 -2
BITMAP
00
00
30
78
30
78
6C
CC
D8
D8
18
30
ENDCHAR
STARTCHAR CYRILLIC SMALL LETTER GJE
ENCODING 1107
SWIDTH 480 0
DWIDTH 6 0
BBX 6 12 0 -2
BITMAP
00
0C
18
00
00
78
0C
78
C0
78
00
00
ENDCHAR
STARTCHAR CYRILLIC SMALL LETTER UKRAINIAN IE
ENCODING 1108
SWIDTH 480 0
DWIDTH 6 0
BBX 6 12 0 -2
BITMAP
00
00
00
00
00
3C
60
F0
C0
78
00
00
ENDCHAR
STARTCHAR CYRILLIC SMALL LETTER DZE
ENCODING 1109
SWIDTH 480 0
DWIDTH 6 0
BBX 6 12 0 -2
BITMAP
00
00
00
00
00
3C
60
30
18
F0
00
00
ENDCHAR
STARTCHAR CYRILLIC SMALL LETTER BYELORUSSIAN-UKRAINIAN I
ENCODING 1110
SWIDTH 480 0
DWIDTH 6 0
BBX 6 12 0 -2
BITMAP
00
00
18
18
00
30
30
60
60
30
00
00
ENDCHAR
STARTCHAR CYRILLIC SMALL LETTER YI
ENCODING 1111
SWIDTH 480 0
DWIDTH 6 0
BBX 6 12 0 -2
BITMAP
00
6C
6C
00
00
30
30
60
60
30
00
00
ENDCHAR
STARTCHAR CYRILLIC SMALL LETTER JE
ENCODING 1112
SWIDTH 480 0
DWIDTH 6 0
BBX 6 12 0 -2
BITMAP
00
00
18
18
00
30
30
30
60
60
60
C0
ENDCHAR
STARTCHAR CYRILLIC SMALL LETTER LJE
ENCODING 1113
SWIDTH 480 0
DWIDTH 6 0
BBX 6 12 0 -2
BITMAP
00
00
00
00
00
3C
4C
D8
DC
C8
00
00
ENDCHAR
STARTCHAR CYRILLIC SMALL LETTER NJE
ENCODING 1114
SWIDTH 480 0
DWIDTH 6 0
BBX 6 12 0 -2
BITMAP
00
00
00
00
00
6C
6C
F8
DC
C8
00
00
ENDCHAR
STARTCHAR CYRILLIC SMALL LETTER TSHE
ENCODING 1115
SWIDTH 480 0
DWIDTH 6 0
BBX 6 12 0 -2
BITMAP
00
00
30
78
30
78
6C
CC
D8
D8
00
00
ENDCHAR
STARTCHAR CYRILLIC SMALL LETTER KJE
ENCODING 1116
SWIDTH 480 0
DWIDTH 6 0
BBX 6 12 0 -2
BITMAP
00
0C
18
00
00
6C
78
F0
D8
CC
00
00
ENDCHAR
STARTCHAR CYRILLIC SMALL LETTER SHORT U
ENCODING 1118
SWIDTH 480 0
DWIDTH 6 0
BBX 6 12 0 -2
BITMAP
00
3C
18
00
00
6C
6C
CC
D8
78
18
70
ENDCHAR
STARTCHAR CYRILLIC SMALL LETTER DZHE
ENCODING 1119
SWIDTH 480 0
DWIDTH 6 0
BBX 6 12 0 -2
BITMAP
00
00
00
00
00
6C
6C
CC
D8
F8
20
20
ENDCHAR
STARTCHAR CYRILLIC CAPITAL LETTER GHE WITH UPTURN
ENCODING 1168
SWIDTH 480 0
DWIDTH 6 0
BBX 6 12 0 -2
BITMAP
00
00
0C
7C
60
60
C0
C0
C0
C0
00
00
ENDCHAR
STARTCHAR CYRILLIC SMALL LETTER GHE WITH UPTURN
ENCODING 1169
SWIDTH 480 0
DWIDTH 6 0
BBX 6 12 0 -2
BITMAP
00
00
00
00
0C
7C
60
C0
C0
C0
00
00
ENDCHAR
STARTCHAR HEBREW LETTER ALEF
ENCODING 1488
SWIDTH 480 0
DWIDTH 6 0
BBX 6 12 0 -2
BITMAP
00
00
00
00
00
6C
2C
78
D0
D8
00
00
ENDCHAR
STARTCHAR HEBREW LETTER BET
ENCODING 1489
SWIDTH 480 0
DWIDTH 6 0
BBX 6 12 0 -2
BITMAP
00
00
00
00
00
70
18
18
30
F8
00
00
ENDCHAR
STARTCHAR HEBREW LETTER GIMEL
ENCODING 1490
SWIDTH 480 0
DWIDTH 6 0
BBX 6 12 0 -2
BITMAP
00
00
00
00
00
70
18
18
38
EC
00
00
ENDCHAR
STARTCHAR HEBREW LETTER DALET
ENCODING 1491
SWIDTH 480 0
DWIDTH 6 0
BBX 6 12 0 -2
BITMAP
00
00
00
00
00
7C
18
18
30
30
00
00
ENDCHAR
STARTCHAR HEBREW LETTER HE
ENCODING 1492
SWIDTH 480 0
DWIDTH 6 0
BBX 6 12 0 -2
BITMAP
00
00
00
00
00
78
0C
CC
D8
D8
00
00
ENDCHAR
STARTCHAR HEBREW LETTER VAV
ENCODING 1493
SWIDTH 480 0
DWIDTH 6 0
BBX 6 12 0 -2
BITMAP
00
00
00
00
00
30
30
60
60
60
00
00
ENDCHAR
STARTCHAR HEBREW LETTER ZAYIN
ENCODING 1494
SWIDTH 480 0
DWIDTH 6 0
BBX 6 12 0 -2
BITMAP
00
00
00
00
00
7C
0C
38
60
60
00
00
ENDCHAR
STARTCHAR HEBREW LETTER HET
ENCODING 1495
SWIDTH 480 0
DWIDTH 6 0
BBX 6 12 0 -2
BITMAP
00
00
00
00
00
78
6C
CC
D8
D8
00
00
ENDCHAR
STARTCHAR HEBREW LETTER TET
ENCODING 1496
SWIDTH 480 0
DWIDTH 6 0
BBX 6 12 0 -2
BITMAP
00
00
00
00
00
68
6C
CC
D8
70
00
00
ENDCHAR
STARTCHAR HEBREW LETTER YOD
ENCODING 1497
SWIDTH 480 0
DWIDTH 6 0
BBX 6 12 0 -2
BITMAP
00
00
00
00
00
30
30
60
00
00
00
00
ENDCHAR
STARTCHAR HEBREW LETTER FINAL KAF
ENCODING 1498
SWIDTH 480 0
DWIDTH 6 0
BBX 6 12 0 -2
BITMAP
00
00
00
00
00
78
0C
0C
0C
18
18
18
ENDCHAR
STARTCHAR HEBREW LETTER KAF
ENCODING 1499
SWIDTH 480 0
DWIDTH 6 0
BBX 6 12 0 -2
BITMAP
00
00
00
00
00
78
0C
0C
18
F0
00
00
ENDCHAR
STARTCHAR HEBREW LETTER LAMED
ENCODING 1500
SWIDTH 480 0
DWIDTH 6 0
BBX 6 12 0 -2
BITMAP
00
00
00
00
60
7C
0C
38
60
C0
00
00
ENDCHAR
STARTCHAR HEBREW LETTER FINAL MEM
ENCODING 1501
SWIDTH 480 0
DWIDTH 6 0
BBX 6 12 0 -2
BITMAP
00
00
00
00
00
78
6C
CC
D8
F8
00
00
ENDCHAR
STARTCHAR HEBREW LETTER MEM
ENCODING 1502
SWIDTH 480 0
DWIDTH 6 0
BBX 6 12 0 -2
BITMAP
00
00
00
00
00
D8
6C
4C
D8
F8
00
00
ENDCHAR
STARTCHAR HEBREW LETTER FINAL NUN
ENCODING 1503
SWIDTH 480 0
DWIDTH 6 0
BBX 6 12 0 -2
BITMAP
00
00
00
00
00
18
18
30
30
30
60
60
ENDCHAR
STARTCHAR HEBREW LETTER NUN
ENCODING 1504
SWIDTH 480 0
DWIDTH 6 0
BBX 6 12 0 -2
BITMAP
00
00
00
00
00
78
0C
0C
18
F8
00
00
ENDCHAR
STARTCHAR HEBREW LETTER SAMEKH
ENCODING 1505
SWIDTH 480 0
DWIDTH 6 0
BBX 6 12 0 -2
BITMAP
00
00
00
00
00
78
6C
CC
D8
70
00
00
ENDCHAR
STARTCHAR HEBREW LETTER AYIN
ENCODING 1506
SWIDTH 480 0
DWIDTH 6 0
BBX 6 12 0 -2
BITMAP
00
00
00
00
00
6C
6C
6C
78
F0
00
00
ENDCHAR
STARTCHAR HEBREW LETTER FINAL PE
ENCODING 1507
SWIDTH 480 0
DWIDTH 6 0
BBX 6 12 0 -2
BITMAP
00
00
00
00
00
78
6C
3C
0C
18
18
18
ENDCHAR
STARTCHAR HEBREW LETTER PE
ENCODING 1508
SWIDTH 480 0
DWIDTH 6 0
BBX 6 12 0 -2
BITMAP
00
00
00
00
00
78
6C
2C
18
F0
00
00
ENDCHAR
STARTCHAR HEBREW LETTER FINAL TSADI
ENCODING 1509
SWIDTH 480 0
DWIDTH 6 0
BBX 6 12 0 -2
BITMAP
00
00
00
00
00
6C
3C
18
30
60
60
60
ENDCHAR
STARTCHAR HEBREW LETTER TSADI
ENCODING 1510
SWIDTH 480 0
DWIDTH 6 0
BBX 6 12 0 -2
BITMAP
00
00
00
00
00
6C
3C
18
30
F8
00
00
ENDCHAR
STARTCHAR HEBREW LETTER QOF
ENCODING 1511
SWIDTH 480 0
DWIDTH 6 0
BBX 6 12 0 -2
BITMAP
00
00
00
00
00
7C
0C
6C
78
F0
C0
C0
ENDCHAR
STARTCHAR HEBREW LETTER RESH
ENCODING 1512
SWIDTH 480 0
DWIDTH 6 0
BBX 6 12 0 -2
BITMAP
00
00
00
00
00
78
0C
0C
18
18
00
00
ENDCHAR
STARTCHAR HEBREW LETTER SHIN
ENCODING 1513
SWIDTH 480 0
DWIDTH 6 0
BBX 6 12 0 -2
BITMAP
00
00
00
00
00
54
74
EC
D8
F0
00
00
ENDCHAR
STARTCHAR HEBREW LETTER TAV
ENCODING 1514
SWIDTH 480 0
DWIDTH 6 0
BBX 6 12 0 -2
BITMAP
00
00
00
00
00
78
3C
6C
78
D8
00
00
ENDCHAR
STARTCHAR LATIN CAPITAL LETTER B WITH DOT ABOVE
ENCODING 7682
SWIDTH 480 0
DWIDTH 6 0
BBX 6 12 0 -2
BITMAP
18
18
00
78
6C
6C
F8
D8
D8
F0
00
00
ENDCHAR
STARTCHAR LATIN SMALL LETTER B WITH DOT ABOVE
ENCODING 7683
SWIDTH 480 0
DWIDTH 6 0
BBX 6 12 0 -2
BITMAP
18
18
00
30
60
78
6C
CC
D8
70
00
00
ENDCHAR
STARTCHAR LATIN CAPITAL LETTER D WITH DOT ABOVE
ENCODING 7690
SWIDTH 480 0
DWIDTH 6 0
BBX 6 12 0 -2
BITMAP
18
18
00
78
6C
6C
CC
D8
D8
F0
00
00
ENDCHAR
STARTCHAR LATIN SMALL LETTER D WITH DOT ABOVE
ENCODING 7691
SWIDTH 480 0
DWIDTH 6 0
BBX 6 12 0 -2
BITMAP
0C
0C
00
04
0C
3C
6C
C8
D8
78
00
00
ENDCHAR
STARTCHAR LATIN CAPITAL LETTER F WITH DOT ABOVE
ENCODING 7710
SWIDTH 480 0
DWIDTH 6 0
BBX 6 12 0 -2
BITMAP
18
18
00
7C
60
60
F0
C0
C0
C0
00
00
ENDCHAR
STARTCHAR LATIN SMALL LETTER F WITH DOT ABOVE
ENCODING 7711
SWIDTH 480 0
DWIDTH 6 0
BBX 6 12 0 -2
BITMAP
18
18
00
1C
30
30
30
F8
60
60
60
C0
ENDCHAR
STARTCHAR LATIN CAPITAL LETTER M WITH DOT ABOVE
ENCODING 7744
SWIDTH 480 0
DWIDTH 6 0
BBX 6 12 0 -2
BITMAP
18
18
00
6C
6C
7C
CC
D8
D8
D8
00
00
ENDCHAR
STARTCHAR LATIN SMALL LETTER M WITH DOT ABOVE
ENCODING 7745
SWIDTH 480 0
DWIDTH 6 0
BBX 6 12 0 -2
BITMAP
00
18
18
00
00
68
7C
FC
F8
D8
00
00
ENDCHAR
STARTCHAR LATIN CAPITAL LETTER P WITH DOT ABOVE
ENCODING 7766
SWIDTH 480 0
DWIDTH 6 0
BBX 6 12 0 -2
BITMAP
18
18
00
78
6C
4C
D8
F0
C0
C0
00
00
ENDCHAR
STARTCHAR LATIN SMALL LETTER P WITH DOT ABOVE
ENCODING 7767
SWIDTH 480 0
DWIDTH 6 0
BBX 6 12 0 -2
BITMAP
00
18
18
00
00
78
6C
6C
58
F0
C0
C0
ENDCHAR
STARTCHAR LATIN CAPITAL LETTER S WITH DOT ABOVE
ENCODING 7776
SWIDTH 480 0
DWIDTH 6 0
BBX 6 12 0 -2
BITMAP
18
18
00
3C
60
60
30
18
18
F0
00
00
ENDCHAR
STARTCHAR LATIN SMALL LETTER S WITH DOT ABOVE
ENCODING 7777
SWIDTH 480 0
DWIDTH 6 0
BBX 6 12 0 -2
BITMAP
00
18
18
00
00
3C
60
30
18
F0
00
00
ENDCHAR
STARTCHAR LATIN CAPITAL LETTER T WITH DOT ABOVE
ENCODING 7786
SWIDTH 480 0
DWIDTH 6 0
BBX 6 12 0 -2
BITMAP
18
18
00
FC
30
30
60
60
60
60
00
00
ENDCHAR
STARTCHAR LATIN SMALL LETTER T WITH DOT ABOVE
ENCODING 7787
SWIDTH 480 0
DWIDTH 6 0
BBX 6 12 0 -2
BITMAP
18
18
00
18
18
7C
30
60
60
38
00
00
ENDCHAR
STARTCHAR LATIN CAPITAL LETTER W WITH GRAVE
ENCODING 7808
SWIDTH 480 0
DWIDTH 6 0
BBX 6 12 0 -2
BITMAP
30
18
00
6C
6C
6C
CC
F8
D8
88
00
00
ENDCHAR
STARTCHAR LATIN SMALL LETTER W WITH GRAVE
ENCODING 7809
SWIDTH 480 0
DWIDTH 6 0
BBX 6 12 0 -2
BITMAP
00
30
18
00
00
6C
6C
FC
D8
88
00
00
ENDCHAR
STARTCHAR LATIN CAPITAL LETTER W WITH ACUTE
ENCODING 7810
SWIDTH 480 0
DWIDTH 6 0
BBX 6 12 0 -2
BITMAP
0C
18
00
6C
6C
6C
CC
F8
D8
88
00
00
ENDCHAR
STARTCHAR LATIN SMALL LETTER W WITH ACUTE
ENCODING 7811
SWIDTH 480 0
DWIDTH 6 0
BBX 6 12 0 -2
BITMAP
00
0C
18
00
00
6C
6C
FC
D8
88
00
00
ENDCHAR
STARTCHAR LATIN CAPITAL LETTER W WITH DIAERESIS
ENCODING 7812
SWIDTH 480 0
DWIDTH 6 0
BBX 6 12 0 -2
BITMAP
6C
6C
00
6C
6C
6C
CC
F8
D8
88
00
00
ENDCHAR
STARTCHAR LATIN SMALL LETTER W WITH DIAERESIS
ENCODING 7813
SWIDTH 480 0
DWIDTH 6 0
BBX 6 12 0 -2
BITMAP
00
6C
6C
00
00
6C
6C
FC
D8
88
00
00
ENDCHAR
STARTCHAR LATIN CAPITAL LETTER Y WITH GRAVE
ENCODING 7922
SWIDTH 480 0
DWIDTH 6 0
BBX 6 12 0 -2
BITMAP
30
18
00
CC
CC
F8
70
60
60
60
00
00
ENDCHAR
STARTCHAR LATIN SMALL LETTER Y WITH GRAVE
ENCODING 7923
SWIDTH 480 0
DWIDTH 6 0
BBX 6 12 0 -2
BITMAP
00
30
18
00
00
6C
6C
CC
D8
78
18
70
ENDCHAR
STARTCHAR HORIZONTAL BAR
ENCODING 8213
SWIDTH 480 0
DWIDTH 6 0
BBX 6 12 0 -2
BITMAP
00
00
00
00
00
7C
F8
00
00
00
00
00
ENDCHAR
STARTCHAR DOUBLE LOW LINE
ENCODING 8215
SWIDTH 480 0
DWIDTH 6 0
BBX 6 12 0 -2
BITMAP
00
00
00
00
00
00
00
7C
7C
00
F8
F8
ENDCHAR
STARTCHAR LEFT SINGLE QUOTATION MARK
ENCODING 8216
SWIDTH 480 0
DWIDTH 6 0
BBX 6 12 0 -2
BITMAP
00
18
30
30
00
00
00
00
00
00
00
00
ENDCHAR
STARTCHAR RIGHT SINGLE QUOTATION MARK
ENCODING 8217
SWIDTH 480 0
DWIDTH 6 0
BBX 6 12 0 -2
BITMAP
00
30
30
60
00
00
00
00
00
00
00
00
ENDCHAR
STARTCHAR SINGLE HIGH-REVERSED-9 QUOTATION MARK
ENCODING 8219
SWIDTH 480 0
DWIDTH 6 0
BBX 6 12 0 -2
BITMAP
00
30
30
18
00
00
00
00
00
00
00
00
ENDCHAR
STARTCHAR LEFT DOUBLE QUOTATION MARK
ENCODING 8220
SWIDTH 480 0
DWIDTH 6 0
BBX 6 12 0 -2
BITMAP
00
6C
D8
D8
00
00
00
00
00
00
00
00
ENDCHAR
STARTCHAR RIGHT DOUBLE QUOTATION MARK
ENCODING 8221
SWIDTH 480 0
DWIDTH 6 0
BBX 6 12 0 -2
BITMAP
00
6C
6C
D8
00
00
00
00
00
00
00
00
ENDCHAR
STARTCHAR DOUBLE LOW-9 QUOTATION MARK
ENCODING 8222
SWIDTH 480 0
DWIDTH 6 0
BBX 6 12 0 -2
BITMAP
00
00
00
00
00
00
00
00
00
6C
6C
D8
ENDCHAR
STARTCHAR DOUBLE HIGH-REVERSED-9 QUOTATION MARK
ENCODING 8223
SWIDTH 480 0
DWIDTH 6 0
BBX 6 12 0 -2
BITMAP
00
D8
D8
6C
00
00
00
00
00
00
00
00
ENDCHAR
STARTCHAR EURO SIGN
ENCODING 8364
SWIDTH 480 0
DWIDTH 6 0
BBX 6 12 0 -2
BITMAP
00
00
00
1C
30
F8
60
F0
60
38
00
00
ENDCHAR
STARTCHAR DRACHMA SIGN
ENCODING 8367
SWIDTH 480 0
DWIDTH 6 0
BBX 6 12 0 -2
BITMAP
00
00
00
70
78
78
FC
EC
E8
F0
60
60
ENDCHAR
STARTCHAR HRYVNIA SIGN
ENCODING 8372
SWIDTH 480 0
DWIDTH 6 0
BBX 6 12 0 -2
BITMAP
00
00
00
78
0C
7C
38
F8
C0
78
00
00
ENDCHAR
STARTCHAR RUBLE SIGN
ENCODING 8381
SWIDTH 480 0
DWIDTH 6 0
BBX 6 12 0 -2
BITMAP
00
00
00
78
6C
6C
F8
C0
F0
C0
00
00
ENDCHAR
STARTCHAR NUMERO SIGN
ENCODING 8470
SWIDTH 480 0
DWIDTH 6 0
BBX 6 12 0 -2
BITMAP
00
00
00
58
58
58
F4
DC
D0
DC
00
00
ENDCHAR
STARTCHAR <Private Use, First>
ENCODING 57344
SWIDTH 480 0
DWIDTH 6 0
BBX 6 12 0 -2
BITMAP
00
00
30
30
60
64
6C
DC
D8
6C
00
00
ENDCHAR
STARTCHAR char57345
ENCODING 57345
SWIDTH 480 0
DWIDTH 6 0
BBX 6 12 0 -2
BITMAP
00
00
00
00
00
C4
6C
D8
18
8C
00
0C
ENDCHAR
STARTCHAR char57346
ENCODING 57346
SWIDTH 480 0
DWIDTH 6 0
BBX 6 12 0 -2
BITMAP
00
00
00
00
00
C4
6C
78
D8
CC
C0
8C
ENDCHAR
STARTCHAR char57347
ENCODING 57347
SWIDTH 480 0
DWIDTH 6 0
BBX 6 12 0 -2
BITMAP
00
00
04
04
00
CC
6C
78
D8
CC
C0
80
ENDCHAR
STARTCHAR char57348
ENCODING 57348
SWIDTH 480 0
DWIDTH 6 0
BBX 6 12 0 -2
BITMAP
00
00
80
80
00
38
6C
F8
C0
70
00
00
ENDCHAR
STARTCHAR char57349
ENCODING 57349
SWIDTH 480 0
DWIDTH 6 0
BBX 6 12 0 -2
BITMAP
00
00
00
7C
6C
00
30
00
D8
70
00
00
ENDCHAR
STARTCHAR REPLACEMENT CHARACTER
ENCODING 65533
SWIDTH 480 0
DWIDTH 6 0
BBX 6 12 0 -2
BITMAP
00
30
78
CC
E4
E4
CC
9C
FC
9C
78
30
ENDCHAR
STARTCHAR UNIMPLEMENTED GLYPH
ENCODING 65535
SWIDTH 480 0
DWIDTH 6 0
BBX 6 12 0 -2
BITMAP
00
7C
7C
7C
7C
FC
FC
F8
F8
F8
F8
00
ENDCHAR
ENDFONT
